<svg xmlns="http://www.w3.org/2000/svg"
     width="256" height="256"
     viewBox="0 0 16 16"
     shape-rendering="crispEdges"
     style="image-rendering: pixelated;">
<rect x="9" y="1" width="1" height="1" fill="rgb(117,40,2)"/>
<rect x="8" y="2" width="1" height="1" fill="rgb(178,100,17)"/>
<rect x="9" y="2" width="1" height="1" fill="rgb(84,36,9)"/>
<rect x="8" y="3" width="1" height="1" fill="rgb(117,40,2)"/>
<rect x="5" y="4" width="1" height="1" fill="rgb(178,100,17)"/>
<rect x="6" y="4" width="1" height="1" fill="rgb(178,100,17)"/>
<rect x="7" y="4" width="1" height="1" fill="rgb(117,40,2)"/>
<rect x="8" y="4" width="1" height="1" fill="rgb(84,36,9)"/>
<rect x="9" y="4" width="1" height="1" fill="rgb(117,40,2)"/>
<rect x="10" y="4" width="1" height="1" fill="rgb(117,40,2)"/>
<rect x="3" y="5" width="1" height="1" fill="rgb(178,100,17)"/>
<rect x="4" y="5" width="1" height="1" fill="rgb(219,162,19)"/>
<rect x="5" y="5" width="1" height="1" fill="rgb(254,255,230)"/>
<rect x="6" y="5" width="1" height="1" fill="rgb(219,162,19)"/>
<rect x="7" y="5" width="1" height="1" fill="rgb(84,36,9)"/>
<rect x="8" y="5" width="1" height="1" fill="rgb(178,100,17)"/>
<rect x="9" y="5" width="1" height="1" fill="rgb(236,203,69)"/>
<rect x="10" y="5" width="1" height="1" fill="rgb(219,162,19)"/>
<rect x="11" y="5" width="1" height="1" fill="rgb(117,40,2)"/>
<rect x="12" y="5" width="1" height="1" fill="rgb(117,40,2)"/>
<rect x="2" y="6" width="1" height="1" fill="rgb(178,100,17)"/>
<rect x="3" y="6" width="1" height="1" fill="rgb(219,162,19)"/>
<rect x="4" y="6" width="1" height="1" fill="rgb(234,238,87)"/>
<rect x="5" y="6" width="1" height="1" fill="rgb(246,248,146)"/>
<rect x="6" y="6" width="1" height="1" fill="rgb(254,255,230)"/>
<rect x="7" y="6" width="1" height="1" fill="rgb(254,255,230)"/>
<rect x="8" y="6" width="1" height="1" fill="rgb(254,255,230)"/>
<rect x="9" y="6" width="1" height="1" fill="rgb(246,248,146)"/>
<rect x="10" y="6" width="1" height="1" fill="rgb(234,238,87)"/>
<rect x="11" y="6" width="1" height="1" fill="rgb(219,162,19)"/>
<rect x="12" y="6" width="1" height="1" fill="rgb(117,40,2)"/>
<rect x="13" y="6" width="1" height="1" fill="rgb(117,40,2)"/>
<rect x="2" y="7" width="1" height="1" fill="rgb(178,100,17)"/>
<rect x="3" y="7" width="1" height="1" fill="rgb(219,162,19)"/>
<rect x="4" y="7" width="1" height="1" fill="rgb(234,238,87)"/>
<rect x="5" y="7" width="1" height="1" fill="rgb(234,238,87)"/>
<rect x="6" y="7" width="1" height="1" fill="rgb(234,238,87)"/>
<rect x="7" y="7" width="1" height="1" fill="rgb(234,238,87)"/>
<rect x="8" y="7" width="1" height="1" fill="rgb(234,238,87)"/>
<rect x="9" y="7" width="1" height="1" fill="rgb(234,238,87)"/>
<rect x="10" y="7" width="1" height="1" fill="rgb(236,203,69)"/>
<rect x="11" y="7" width="1" height="1" fill="rgb(234,238,87)"/>
<rect x="12" y="7" width="1" height="1" fill="rgb(219,162,19)"/>
<rect x="13" y="7" width="1" height="1" fill="rgb(117,40,2)"/>
<rect x="2" y="8" width="1" height="1" fill="rgb(178,100,17)"/>
<rect x="3" y="8" width="1" height="1" fill="rgb(219,162,19)"/>
<rect x="4" y="8" width="1" height="1" fill="rgb(236,203,69)"/>
<rect x="5" y="8" width="1" height="1" fill="rgb(234,238,87)"/>
<rect x="6" y="8" width="1" height="1" fill="rgb(236,203,69)"/>
<rect x="7" y="8" width="1" height="1" fill="rgb(234,238,87)"/>
<rect x="8" y="8" width="1" height="1" fill="rgb(236,203,69)"/>
<rect x="9" y="8" width="1" height="1" fill="rgb(236,203,69)"/>
<rect x="10" y="8" width="1" height="1" fill="rgb(236,203,69)"/>
<rect x="11" y="8" width="1" height="1" fill="rgb(234,238,87)"/>
<rect x="12" y="8" width="1" height="1" fill="rgb(236,203,69)"/>
<rect x="13" y="8" width="1" height="1" fill="rgb(84,18,9)"/>
<rect x="2" y="9" width="1" height="1" fill="rgb(117,40,2)"/>
<rect x="3" y="9" width="1" height="1" fill="rgb(219,162,19)"/>
<rect x="4" y="9" width="1" height="1" fill="rgb(219,162,19)"/>
<rect x="5" y="9" width="1" height="1" fill="rgb(236,203,69)"/>
<rect x="6" y="9" width="1" height="1" fill="rgb(236,203,69)"/>
<rect x="7" y="9" width="1" height="1" fill="rgb(219,162,19)"/>
<rect x="8" y="9" width="1" height="1" fill="rgb(219,162,19)"/>
<rect x="9" y="9" width="1" height="1" fill="rgb(236,203,69)"/>
<rect x="10" y="9" width="1" height="1" fill="rgb(219,162,19)"/>
<rect x="11" y="9" width="1" height="1" fill="rgb(234,238,87)"/>
<rect x="12" y="9" width="1" height="1" fill="rgb(236,203,69)"/>
<rect x="13" y="9" width="1" height="1" fill="rgb(84,18,9)"/>
<rect x="2" y="10" width="1" height="1" fill="rgb(117,40,2)"/>
<rect x="3" y="10" width="1" height="1" fill="rgb(219,162,19)"/>
<rect x="4" y="10" width="1" height="1" fill="rgb(219,162,19)"/>
<rect x="5" y="10" width="1" height="1" fill="rgb(219,162,19)"/>
<rect x="6" y="10" width="1" height="1" fill="rgb(219,162,19)"/>
<rect x="7" y="10" width="1" height="1" fill="rgb(219,162,19)"/>
<rect x="8" y="10" width="1" height="1" fill="rgb(236,203,69)"/>
<rect x="9" y="10" width="1" height="1" fill="rgb(219,162,19)"/>
<rect x="10" y="10" width="1" height="1" fill="rgb(219,162,19)"/>
<rect x="11" y="10" width="1" height="1" fill="rgb(234,238,87)"/>
<rect x="12" y="10" width="1" height="1" fill="rgb(219,162,19)"/>
<rect x="13" y="10" width="1" height="1" fill="rgb(84,18,9)"/>
<rect x="3" y="11" width="1" height="1" fill="rgb(117,40,2)"/>
<rect x="4" y="11" width="1" height="1" fill="rgb(219,162,19)"/>
<rect x="5" y="11" width="1" height="1" fill="rgb(219,162,19)"/>
<rect x="6" y="11" width="1" height="1" fill="rgb(236,203,69)"/>
<rect x="7" y="11" width="1" height="1" fill="rgb(219,162,19)"/>
<rect x="8" y="11" width="1" height="1" fill="rgb(219,162,19)"/>
<rect x="9" y="11" width="1" height="1" fill="rgb(219,162,19)"/>
<rect x="10" y="11" width="1" height="1" fill="rgb(236,203,69)"/>
<rect x="11" y="11" width="1" height="1" fill="rgb(219,162,19)"/>
<rect x="12" y="11" width="1" height="1" fill="rgb(84,18,9)"/>
<rect x="3" y="12" width="1" height="1" fill="rgb(117,40,2)"/>
<rect x="4" y="12" width="1" height="1" fill="rgb(178,100,17)"/>
<rect x="5" y="12" width="1" height="1" fill="rgb(219,162,19)"/>
<rect x="6" y="12" width="1" height="1" fill="rgb(219,162,19)"/>
<rect x="7" y="12" width="1" height="1" fill="rgb(219,162,19)"/>
<rect x="8" y="12" width="1" height="1" fill="rgb(236,203,69)"/>
<rect x="9" y="12" width="1" height="1" fill="rgb(236,203,69)"/>
<rect x="10" y="12" width="1" height="1" fill="rgb(219,162,19)"/>
<rect x="11" y="12" width="1" height="1" fill="rgb(178,100,17)"/>
<rect x="12" y="12" width="1" height="1" fill="rgb(84,18,9)"/>
<rect x="4" y="13" width="1" height="1" fill="rgb(84,18,9)"/>
<rect x="5" y="13" width="1" height="1" fill="rgb(178,100,17)"/>
<rect x="6" y="13" width="1" height="1" fill="rgb(219,162,19)"/>
<rect x="7" y="13" width="1" height="1" fill="rgb(178,100,17)"/>
<rect x="8" y="13" width="1" height="1" fill="rgb(178,100,17)"/>
<rect x="9" y="13" width="1" height="1" fill="rgb(219,162,19)"/>
<rect x="10" y="13" width="1" height="1" fill="rgb(178,100,17)"/>
<rect x="11" y="13" width="1" height="1" fill="rgb(84,18,9)"/>
<rect x="5" y="14" width="1" height="1" fill="rgb(84,18,9)"/>
<rect x="6" y="14" width="1" height="1" fill="rgb(117,40,2)"/>
<rect x="7" y="14" width="1" height="1" fill="rgb(117,40,2)"/>
<rect x="8" y="14" width="1" height="1" fill="rgb(117,40,2)"/>
<rect x="9" y="14" width="1" height="1" fill="rgb(84,18,9)"/>
<rect x="10" y="14" width="1" height="1" fill="rgb(84,18,9)"/>
</svg>