<?xml version="1.0" encoding="utf-8"?>
<svg xmlns:inkscape="http://www.inkscape.org/namespaces/inkscape" xmlns:sodipodi="http://sodipodi.sourceforge.net/DTD/sodipodi-0.dtd" xmlns="http://www.w3.org/2000/svg" width="512" height="512" viewBox="0 0 512 512" version="1.1" inkscape:export-xdpi="96" inkscape:export-ydpi="96" style="fill: none; stroke: none">
  <defs/>
  <sodipodi:namedview inkscape:pagecheckerboard="true" borderlayer="true" bordercolor="#666666" pagecolor="#ffffff"/>
  <g inkscape:groupmode="layer" id="g_1" transform="matrix(2.13333, 0.0, 0.0, 2.13333, 0.0, 0.0)" inkscape:label="PreCompLayer">
    <g inkscape:groupmode="layer" id="g_2" transform="matrix(1.33333, 0.0, 0.0, 1.33333, 0.0, 0.0)" inkscape:label="ShapeLayer" style="">
      <g inkscape:groupmode="layer" id="g_3" inkscape:label="#000000ff" transform="matrix(1.0, 0.0, 0.0, 1.0, 0.0, 0.0)" style="">
        <g id="g_4" transform="matrix(1.0, 0.0, 0.0, 1.0, 0.0, 0.0)" style="fill-opacity:1.0;fill:rgb(0, 0, 0)">
          <path d="M 37.89,5.83 C 39.36,4.59 41.0,3.16 43.08,3.54 C 45.879999999999995,3.61 47.39,6.549999999999999 47.94,8.95 C 49.5,15.489999999999998 49.849999999999994,22.299999999999997 49.37,28.99 C 48.29,36.05 45.76,43.400000000000006 40.04,48.06 C 41.13,49.330000000000005 42.230000000000004,50.599999999999994 43.34,51.87 C 47.88,46.349999999999994 46.68,38.76 49.35,32.47 C 51.11,26.97 55.8,21.77 61.96,21.84 C 67.77,21.49 72.24000000000001,25.67 77.06,28.16 C 86.52000000000001,26.4 96.32000000000001,24.3 105.92,26.53 C 109.68,27.89 112.47,24.32 115.91,23.51 C 120.02,22.26 125.13,21.2 128.75,24.22 C 132.65,27.68 133.32,33.2 133.41,38.11 C 133.21,42.56 136.31,46.019999999999996 138.33,49.68 C 140.63000000000002,48.05 142.79,46.22 144.75,44.17 C 138.54,35.800000000000004 133.4,24.9 136.53,14.33 C 137.38,11.01 140.14,6.950000000000001 144.13,8.22 C 150.12,10.07 154.3,15.07 158.77,19.16 C 161.44,15.2 163.74,10.77 167.55,7.76 C 170.07000000000002,5.56 174.49,5.82 176.11,8.97 C 178.82000000000002,14.21 177.73999999999998,20.4 176.95,25.99 C 175.75,33.1 174.04000000000002,41.27 167.52,45.45 C 164.36,47.93 159.64,47.82 157.2,51.26 C 153.45,55.78 148.95,59.709999999999994 143.79,62.55 C 151.98999999999998,65.98 162.38,61.050000000000004 169.76,67.26 C 174.92,72.85000000000001 173.32,81.13999999999999 173.32,88.07 C 171.59,96.17999999999999 170.36999999999998,104.47000000000001 167.17,112.18 C 171.97,123.48 173.91,135.77 174.71,147.96 C 175.18,158.72 175.42999999999998,169.77 179.2,180 C 179.2,180 174.62,180 174.62,180 C 172.59,174.22 171.85999999999999,168.09 171.32,162.02 C 170.79,147.34 169.94,132.38 165.18,118.35 C 164.79000000000002,117.16999999999999 164.4,115.98 164.02,114.8 C 162.98000000000002,116.0 161.91,117.15 160.74,118.22 C 160.98000000000002,116.17999999999999 161.44,114.16000000000001 162.25,112.26 C 165.41,104.59 167.32999999999998,96.46000000000001 168.42,88.25 C 169.23,88.42 170.85,88.75 171.66,88.92 C 171.02,86.35000000000001 170.19,83.83 169.17,81.39 C 168.95,77.44 169.62,72.54 166.26,69.68 C 162.76,67.59 158.4,67.89 154.5,68.25 C 156.15,69.26 157.81,70.26 159.47,71.26 C 158.87,71.35000000000001 157.67,71.53 157.07,71.62 C 155.54,70.83 154.01000000000002,70.04 152.43,69.37 C 149.07,68.26 145.55,67.82 142.06,67.32 C 139.64000000000001,65.94 139.49,62.84 138.49,60.52 C 138.49,60.52 139.73000000000002,59.67 140.15,59.38 C 145.63,56.89 150.32999999999998,52.89 154.04,48.18 C 156.57,44.019999999999996 162.04999999999998,44.32 165.51,41.38 C 169.03,38.480000000000004 170.45,33.87 171.42,29.58 C 172.69,23.2 174.25,16.52 172.24,10.12 C 166.20000000000002,13.25 164.56,20.48 159.91,24.89 C 159.91,24.89 158.37,24.76 158.37,24.76 C 153.15,20.67 149.34,14.5 143.01,11.97 C 140.51999999999998,13.67 140.48,17.23 140.42,19.96 C 140.63,28.42 143.35000000000002,37.58 150.02,43.19 C 149.35000000000002,44.96 148.44,46.64 147.13,48.03 C 144.64,50.43 141.89000000000001,52.63 138.68,54 C 137.82,54.38 136.95000000000002,54.760000000000005 136.09,55.13 C 134.17000000000002,51.43 131.87,47.970000000000006 129.66,44.45 C 127.91,39.03 129.95,32.57 126.16,27.85 C 124.22999999999999,25.39 120.73,26.66 118.2,27.24 C 115.02,27.93 112.63,30.21 109.94,31.86 C 100.50999999999999,29.29 90.49000000000001,29.690000000000005 81.04,32.02 C 79.06,32.38 76.81,33.199999999999996 74.94,32.04 C 71.06,29.849999999999998 67.65,26.389999999999997 63.06,25.81 C 59.940000000000005,25.939999999999998 56.86,27.590000000000003 55.3,30.35 C 52.33,35.52 51.370000000000005,41.52 50.42,47.32 C 49.68,50.78 47.11,53.42 45.56,56.51 C 44.53,56.419999999999995 43.5,56.32 42.48,56.2 C 39.22,55.09 36.94,52.37 35.39,49.4 C 34.95,48.629999999999995 34.51,47.86 34.08,47.08 C 37.16,44.55 40.67,42.05 41.95,38.07 C 46.27,28.52 45.24,17.630000000000003 42.82,7.73 C 35.730000000000004,12.58 30.94,19.9 26.21,26.9 C 19.94,20.419999999999998 14.91,12.45 6.77,8.06 C 3.7099999999999995,18.09 3.83,29.009999999999998 6.95,39 C 9.26,47.68 18.89,52.79 27.44,52.38 C 29.770000000000003,52.82 30.880000000000003,55.13 32.46,56.64 C 34.730000000000004,59.33 37.9,60.940000000000005 41.05,62.34 C 41.8,62.730000000000004 42.540000000000006,63.14 43.27,63.56 C 42.900000000000006,65.10000000000001 42.56,66.65 42.09,68.17 C 42.09,68.17 40.98,69.2 40.98,69.2 C 39.97,69.63000000000001 38.95,70.03 37.92,70.41 C 37.25,70.07 35.93,69.39 35.26,69.05 C 36.25,68.6 37.230000000000004,68.15 38.21,67.68 C 32.1,67.81 25.919999999999998,68.07 19.9,69.22 C 17.119999999999997,69.65 15.129999999999999,72.11999999999999 15.1,74.91 C 14.4,84.06 15.940000000000001,93.27 18.35,102.08 C 19.830000000000002,107.67 21.8,113.11 23.21,118.72 C 17.93,126.99 16.93,136.99 14.12,146.21 C 12.75,151.48000000000002 9.72,156.08 7.12,160.8 C 10.82,161.87 14.319999999999999,160.41 17.31,158.29 C 16.97,165.51999999999998 16.93,172.78 17.53,180 C 17.53,180 13.19,180 13.19,180 C 12.639999999999999,174.99 12.45,169.95 12.84,164.92 C 9.79,164.80999999999997 6.06,165.48999999999998 3.8,162.89 C 2.55,160.04 4.51,157.32 5.83,154.91 C 11.52,145.99 11.78,135.06 15.43,125.35 C 16.43,121.63 18.9,117.78 17.4,113.87 C 13.229999999999999,101.71000000000001 10.33,88.93 10.68,76.01 C 10.64,72.05000000000001 12.41,67.78 16.28,66.19 C 21.69,64.0 27.699999999999996,64.39 33.41,63.77 C 30.959999999999997,61.81 28.9,59.42 26.56,57.34 C 24.02,56.31 21.13,56.51 18.52,55.6 C 11.89,53.260000000000005 5.380000000000001,48.67999999999999 3.24,41.66 C -0.33999999999999986,30.909999999999997 -0.5899999999999999,19.009999999999998 2.42,8.1 C 3.0,5.17 6.23,3.5400000000000005 8.97,4.69 C 15.870000000000001,7.86 20.81,13.88 25.81,19.37 C 29.439999999999998,14.520000000000001 33.34,9.85 37.89,5.83 C 37.89,5.83 37.89,5.83 37.89,5.83 Z" style="fill-opacity:1.0;fill:rgb(0, 0, 0)"/>
        </g>
      </g>
      <g inkscape:groupmode="layer" id="g_5" inkscape:label="#e64a67ff" transform="matrix(1.0, 0.0, 0.0, 1.0, 0.0, 0.0)" style="">
        <g id="g_6" transform="matrix(1.0, 0.0, 0.0, 1.0, 0.0, 0.0)" style="fill-opacity:1.0;fill:rgb(230, 74, 103)">
          <path d="M 26.21,26.9 C 30.94,19.9 35.730000000000004,12.58 42.82,7.73 C 45.24,17.630000000000003 46.27,28.52 41.95,38.07 C 40.67,42.05 37.16,44.55 34.08,47.08 C 34.51,47.86 34.95,48.629999999999995 35.39,49.4 C 32.54,49.78 29.76,50.620000000000005 27.44,52.38 C 18.89,52.79 9.26,47.68 6.95,39 C 3.83,29.009999999999998 3.7099999999999995,18.09 6.77,8.06 C 14.91,12.45 19.94,20.419999999999998 26.21,26.9 &#10;M 12.13,26.24 C 9.040000000000001,28.07 8.799999999999999,32.76 10.2,35.76 C 11.29,38.36 15.53,39.959999999999994 17.13,36.98 C 18.11,34.01 17.080000000000002,30.799999999999997 16.01,27.99 C 15.490000000000002,26.38 13.71,25.479999999999997 12.13,26.24 &#10;M 18.17,41.25 C 18.090000000000003,42.97 18.59,45.7 20.97,45.02 C 22.959999999999997,45.06 22.59,42.55 22.81,41.25 C 21.29,40.43 19.680000000000003,40.37 18.17,41.25 C 18.17,41.25 18.17,41.25 18.17,41.25 Z" style="fill-opacity:1.0;fill:rgb(230, 74, 103)"/>
        </g>
        <g id="g_7" transform="matrix(1.0, 0.0, 0.0, 1.0, 0.0, 0.0)" style="fill-opacity:1.0;fill:rgb(230, 74, 103)">
          <path d="M 159.91,24.89 C 164.56,20.48 166.20000000000002,13.25 172.24,10.12 C 174.25,16.52 172.69,23.2 171.42,29.58 C 170.45,33.87 169.03,38.480000000000004 165.51,41.38 C 162.04999999999998,44.32 156.57,44.019999999999996 154.04,48.18 C 151.75,48.76 149.35999999999999,48.99 147.13,48.03 C 148.44,46.64 149.35000000000002,44.96 150.02,43.19 C 143.35000000000002,37.58 140.63,28.42 140.42,19.96 C 140.48,17.23 140.51999999999998,13.67 143.01,11.97 C 149.34,14.5 153.15,20.67 158.37,24.76 C 158.37,24.76 159.91,24.89 159.91,24.89 &#10;M 148.24,24.17 C 146.33,26.67 145.92,30.550000000000004 147.78,33.2 C 148.81,34.5 151.85000000000002,35.06 152.24,32.92 C 152.34,30.610000000000003 151.68,28.34 151.34,26.07 C 151.63,24.23 149.70000000000002,23.19 148.24,24.17 C 148.24,24.17 148.24,24.17 148.24,24.17 Z" style="fill-opacity:1.0;fill:rgb(230, 74, 103)"/>
        </g>
      </g>
      <g inkscape:groupmode="layer" id="g_8" inkscape:label="#ff9fb0ff" transform="matrix(1.0, 0.0, 0.0, 1.0, 0.0, 0.0)" style="">
        <g id="g_9" transform="matrix(1.0, 0.0, 0.0, 1.0, 0.0, 0.0)" style="fill-opacity:1.0;fill:rgb(255, 159, 176)">
          <path d="M 148.24,24.17 C 149.70000000000002,23.19 151.63,24.23 151.34,26.07 C 151.68,28.34 152.34,30.610000000000003 152.24,32.92 C 151.85000000000002,35.06 148.81,34.5 147.78,33.2 C 145.92,30.550000000000004 146.33,26.67 148.24,24.17 C 148.24,24.17 148.24,24.17 148.24,24.17 Z" style="fill-opacity:1.0;fill:rgb(255, 159, 176)"/>
        </g>
        <g id="g_10" transform="matrix(1.0, 0.0, 0.0, 1.0, 0.0, 0.0)" style="fill-opacity:1.0;fill:rgb(255, 159, 176)">
          <path d="M 12.13,26.24 C 13.71,25.479999999999997 15.490000000000002,26.38 16.01,27.99 C 17.080000000000002,30.799999999999997 18.11,34.01 17.13,36.98 C 15.53,39.959999999999994 11.29,38.36 10.2,35.76 C 8.799999999999999,32.76 9.040000000000001,28.07 12.13,26.24 C 12.13,26.24 12.13,26.24 12.13,26.24 Z" style="fill-opacity:1.0;fill:rgb(255, 159, 176)"/>
        </g>
        <g id="g_11" transform="matrix(1.0, 0.0, 0.0, 1.0, 0.0, 0.0)" style="fill-opacity:1.0;fill:rgb(255, 159, 176)">
          <path d="M 18.17,41.25 C 19.680000000000003,40.37 21.29,40.43 22.81,41.25 C 22.59,42.55 22.959999999999997,45.06 20.97,45.02 C 18.59,45.7 18.090000000000003,42.97 18.17,41.25 C 18.17,41.25 18.17,41.25 18.17,41.25 Z" style="fill-opacity:1.0;fill:rgb(255, 159, 176)"/>
        </g>
        <g id="g_12" transform="matrix(1.0, 0.0, 0.0, 1.0, 0.0, 0.0)" style="fill-opacity:1.0;fill:rgb(255, 159, 176)">
          <path d="M 59.69,46.97 C 60.69,42.44 65.17,38.620000000000005 69.93,39.85 C 72.24000000000001,40.47 71.84,43.14 72.18,44.95 C 69.32000000000001,46.970000000000006 66.96000000000001,50.89 62.99,50.28 C 61.550000000000004,49.58 60.76,48.089999999999996 59.69,46.97 C 59.69,46.97 59.69,46.97 59.69,46.97 Z" style="fill-opacity:1.0;fill:rgb(255, 159, 176)"/>
        </g>
      </g>
      <g inkscape:groupmode="layer" id="g_13" inkscape:label="#e4516cff" transform="matrix(1.0, 0.0, 0.0, 1.0, 0.0, 0.0)" style="">
        <g id="g_14" transform="matrix(1.0, 0.0, 0.0, 1.0, 0.0, 0.0)" style="fill-opacity:1.0;fill:rgb(228, 81, 108)">
          <path d="M 55.3,30.35 C 56.86,27.590000000000003 59.940000000000005,25.939999999999998 63.06,25.81 C 67.65,26.389999999999997 71.06,29.849999999999998 74.94,32.04 C 76.81,33.199999999999996 79.06,32.38 81.04,32.02 C 90.49000000000001,29.690000000000005 100.50999999999999,29.29 109.94,31.86 C 112.63,30.21 115.02,27.93 118.2,27.24 C 120.73,26.66 124.22999999999999,25.39 126.16,27.85 C 129.95,32.57 127.91,39.03 129.66,44.45 C 125.21,43.06 120.58,42.42 115.96,41.99 C 109.27,41.31 102.72,43.63 96.01,43.03 C 88.06,43.46 80.12,44.25 72.18,44.95 C 71.84,43.14 72.24000000000001,40.47 69.93,39.85 C 65.17,38.620000000000005 60.69,42.44 59.69,46.97 C 56.66,47.839999999999996 53.49,48.24 50.42,47.32 C 51.370000000000005,41.52 52.33,35.52 55.3,30.35 C 55.3,30.35 55.3,30.35 55.3,30.35 Z" style="fill-opacity:1.0;fill:rgb(228, 81, 108)"/>
        </g>
      </g>
      <g inkscape:groupmode="layer" id="g_15" inkscape:label="#df5f76ff" transform="matrix(1.0, 0.0, 0.0, 1.0, 0.0, 0.0)" style="">
        <g id="g_16" transform="matrix(1.0, 0.0, 0.0, 1.0, 0.0, 0.0)" style="fill-opacity:1.0;fill:rgb(223, 95, 118)">
          <path d="M 96.01,43.03 C 102.72,43.63 109.27,41.31 115.96,41.99 C 120.58,42.42 125.21,43.06 129.66,44.45 C 131.87,47.970000000000006 134.17000000000002,51.43 136.09,55.13 C 136.95000000000002,54.760000000000005 137.82,54.38 138.68,54 C 139.16,55.79 139.65,57.59 140.15,59.38 C 139.73000000000002,59.67 138.49,60.52 138.49,60.52 C 138.49,60.52 137.68,61.42 137.68,61.42 C 134.56,57.78 129.61,56.96 125.09,56.51 C 121.88000000000001,56.339999999999996 119.32000000000001,53.46 116.03,54 C 110.63,54.72 105.35,56.14 99.99,57.11 C 96.5,57.83 92.97,56.75 89.45,57.06 C 89.08,57.410000000000004 88.34,58.1 87.97,58.45 C 87.52,58.67 86.61,59.120000000000005 86.15,59.35 C 80.76,60.32 75.26,60.11 69.86,59.37 C 68.3,59.21 66.72,59.13 65.17,59.36 C 61.800000000000004,60.07 58.480000000000004,61.26 54.99,61.03 C 51.2,60.85 47.39,60.879999999999995 43.68,61.73 C 44.15,59.94 44.77,58.19 45.56,56.51 C 47.11,53.42 49.68,50.78 50.42,47.32 C 53.49,48.24 56.66,47.839999999999996 59.69,46.97 C 60.76,48.089999999999996 61.550000000000004,49.58 62.99,50.28 C 66.96000000000001,50.89 69.32000000000001,46.970000000000006 72.18,44.95 C 80.12,44.25 88.06,43.46 96.01,43.03 &#10;M 53.15,55.12 C 51.51,56.419999999999995 52.209999999999994,59.82 54.62,58.62 C 57.349999999999994,57.809999999999995 55.61,53.949999999999996 53.15,55.12 C 53.15,55.12 53.15,55.12 53.15,55.12 Z" style="fill-opacity:1.0;fill:rgb(223, 95, 118)"/>
        </g>
        <g id="g_17" transform="matrix(1.0, 0.0, 0.0, 1.0, 0.0, 0.0)" style="fill-opacity:1.0;fill:rgb(223, 95, 118)">
          <path d="M 27.44,52.38 C 29.76,50.620000000000005 32.54,49.78 35.39,49.4 C 36.94,52.37 39.22,55.09 42.48,56.2 C 42.04,58.260000000000005 41.57,60.300000000000004 41.05,62.34 C 37.9,60.940000000000005 34.730000000000004,59.33 32.46,56.64 C 30.880000000000003,55.13 29.770000000000003,52.82 27.44,52.38 C 27.44,52.38 27.44,52.38 27.44,52.38 Z" style="fill-opacity:1.0;fill:rgb(223, 95, 118)"/>
        </g>
      </g>
      <g inkscape:groupmode="layer" id="g_18" inkscape:label="#e05b73ff" transform="matrix(1.0, 0.0, 0.0, 1.0, 0.0, 0.0)" style="">
        <g id="g_19" transform="matrix(1.0, 0.0, 0.0, 1.0, 0.0, 0.0)" style="fill-opacity:1.0;fill:rgb(224, 91, 115)">
          <path d="M 138.68,54 C 141.89000000000001,52.63 144.64,50.43 147.13,48.03 C 149.35999999999999,48.99 151.75,48.76 154.04,48.18 C 150.32999999999998,52.89 145.63,56.89 140.15,59.38 C 139.65,57.59 139.16,55.79 138.68,54 C 138.68,54 138.68,54 138.68,54 Z" style="fill-opacity:1.0;fill:rgb(224, 91, 115)"/>
        </g>
      </g>
      <g inkscape:groupmode="layer" id="g_20" inkscape:label="#dc667bff" transform="matrix(1.0, 0.0, 0.0, 1.0, 0.0, 0.0)" style="">
        <g id="g_21" transform="matrix(1.0, 0.0, 0.0, 1.0, 0.0, 0.0)" style="fill-opacity:1.0;fill:rgb(220, 102, 123)">
          <path d="M 99.99,57.11 C 105.35,56.14 110.63,54.72 116.03,54 C 119.32000000000001,53.46 121.88000000000001,56.339999999999996 125.09,56.51 C 129.61,56.96 134.56,57.78 137.68,61.42 C 137.68,61.42 138.49,60.52 138.49,60.52 C 139.49,62.84 139.64000000000001,65.94 142.06,67.32 C 141.39000000000001,69.13999999999999 140.67999999999998,70.94999999999999 139.92,72.74 C 139.14,73.53999999999999 138.35999999999999,74.34 137.64,75.19 C 134.51999999999998,81.06 131.54,87.01 128.75,93.04 C 127.37,92.76 125.98,92.53 124.59,92.33 C 120.21000000000001,95.42999999999999 114.9,96.69999999999999 109.72,97.71 C 98.97,99.55 88.01,100.33 77.12,99.51 C 72.61,99.04 67.98,98.5 63.89,96.38 C 61.06,97.49 58.29,98.85 55.94,100.8 C 54.489999999999995,98.83 52.9,96.97 51.15,95.26 C 52.14,94.43 53.120000000000005,93.59 54.09,92.75 C 52.440000000000005,91.78 50.53,91.67 48.67,91.63 C 47.29,89.11999999999999 45.879999999999995,86.64 44.48,84.15 C 44.589999999999996,82.45 44.51,80.73 44.12,79.06 C 44.12,79.06 43.05,78.17 43.05,78.17 C 41.94,75.3 41.279999999999994,72.27 40.98,69.2 C 40.98,69.2 42.09,68.17 42.09,68.17 C 42.56,66.65 42.900000000000006,65.10000000000001 43.27,63.56 C 43.27,63.56 43.68,61.73 43.68,61.73 C 47.39,60.879999999999995 51.2,60.85 54.99,61.03 C 58.480000000000004,61.26 61.800000000000004,60.07 65.17,59.36 C 62.57,61.12 60.230000000000004,63.67999999999999 59.99,66.96 C 59.09,73.8 70.59,76.25 73.29,70.35 C 75.86,66.53999999999999 73.4,61.559999999999995 69.86,59.37 C 75.26,60.11 80.76,60.32 86.15,59.35 C 82.28,62.79 82.53999999999999,70.62 88.05,72.18 C 91.67999999999999,72.79 96.59,72.07000000000001 98.29,68.31 C 99.92,65.13 98.35,61.37 95.97,59.05 C 93.72,57.15 90.59,58.17 87.97,58.45 C 88.34,58.1 89.08,57.410000000000004 89.45,57.06 C 92.97,56.75 96.5,57.83 99.99,57.11 &#10;M 112.48,56.71 C 107.92,59.46 107.78,67.8 113.1,69.81 C 117.77,72.08 125.11,67.44 123.03,61.96 C 122.65,57.19 116.52000000000001,53.76 112.48,56.71 &#10;M 120.22,85.22 C 118.94,85.69 118.55,86.63 119.06,88.06 C 120.60000000000001,88.81 122.38999999999999,87.97999999999999 122.82,86.35 C 122.27,85.16 121.4,84.78 120.22,85.22 C 120.22,85.22 120.22,85.22 120.22,85.22 Z" style="fill-opacity:1.0;fill:rgb(220, 102, 123)"/>
        </g>
        <g id="g_22" transform="matrix(1.0, 0.0, 0.0, 1.0, 0.0, 0.0)" style="fill-opacity:1.0;fill:rgb(220, 102, 123)">
          <path d="M 133.37,123.23 C 135.18,121.36 138.61,122.63 139.24,125.02 C 139.92000000000002,128.04999999999998 136.16,131.73000000000002 133.23,129.71 C 130.95999999999998,128.29000000000002 131.52,124.77000000000001 133.37,123.23 C 133.37,123.23 133.37,123.23 133.37,123.23 Z" style="fill-opacity:1.0;fill:rgb(220, 102, 123)"/>
        </g>
        <g id="g_23" transform="matrix(1.0, 0.0, 0.0, 1.0, 0.0, 0.0)" style="fill-opacity:1.0;fill:rgb(220, 102, 123)">
          <path d="M 145.14,123.27 C 149.04,121.55 152.45,126.62 150.1,129.81 C 148.57,132.74 143.89000000000001,132.07 142.93,129.03 C 142.33,127.04 143.04999999999998,124.05 145.14,123.27 C 145.14,123.27 145.14,123.27 145.14,123.27 Z" style="fill-opacity:1.0;fill:rgb(220, 102, 123)"/>
        </g>
      </g>
      <g inkscape:groupmode="layer" id="g_24" inkscape:label="#fa90a4ff" transform="matrix(1.0, 0.0, 0.0, 1.0, 0.0, 0.0)" style="">
        <g id="g_25" transform="matrix(1.0, 0.0, 0.0, 1.0, 0.0, 0.0)" style="fill-opacity:1.0;fill:rgb(250, 144, 164)">
          <path d="M 53.15,55.12 C 55.61,53.949999999999996 57.349999999999994,57.809999999999995 54.62,58.62 C 52.209999999999994,59.82 51.51,56.419999999999995 53.15,55.12 C 53.15,55.12 53.15,55.12 53.15,55.12 Z" style="fill-opacity:1.0;fill:rgb(250, 144, 164)"/>
        </g>
      </g>
      <g inkscape:groupmode="layer" id="g_26" inkscape:label="#a93b50ff" transform="matrix(1.0, 0.0, 0.0, 1.0, 0.0, 0.0)" style="">
        <g id="g_27" transform="matrix(1.0, 0.0, 0.0, 1.0, 0.0, 0.0)" style="fill-opacity:1.0;fill:rgb(169, 59, 80)">
          <path d="M 42.48,56.2 C 43.5,56.32 44.53,56.419999999999995 45.56,56.51 C 44.77,58.19 44.15,59.94 43.68,61.73 C 43.68,61.73 43.27,63.56 43.27,63.56 C 42.540000000000006,63.14 41.8,62.730000000000004 41.05,62.34 C 41.57,60.300000000000004 42.04,58.260000000000005 42.48,56.2 C 42.48,56.2 42.48,56.2 42.48,56.2 Z" style="fill-opacity:1.0;fill:rgb(169, 59, 80)"/>
        </g>
      </g>
      <g inkscape:groupmode="layer" id="g_28" inkscape:label="#c9e8faff" transform="matrix(1.0, 0.0, 0.0, 1.0, 0.0, 0.0)" style="">
        <g id="g_29" transform="matrix(1.0, 0.0, 0.0, 1.0, 0.0, 0.0)" style="fill-opacity:1.0;fill:rgb(201, 232, 250)">
          <path d="M 112.48,56.71 C 116.52000000000001,53.76 122.65,57.19 123.03,61.96 C 125.11,67.44 117.77,72.08 113.1,69.81 C 107.78,67.8 107.92,59.46 112.48,56.71 C 112.48,56.71 112.48,56.71 112.48,56.71 Z" style="fill-opacity:1.0;fill:rgb(201, 232, 250)"/>
        </g>
        <g id="g_30" transform="matrix(1.0, 0.0, 0.0, 1.0, 0.0, 0.0)" style="fill-opacity:1.0;fill:rgb(201, 232, 250)">
          <path d="M 62.57,69.47 C 60.35,65.36 65.71000000000001,58.6 69.93,61.88 C 73.14,64.47 72.53,69.09 69.78,71.79 C 67.28,71.53 64.37,71.5 62.57,69.47 C 62.57,69.47 62.57,69.47 62.57,69.47 Z" style="fill-opacity:1.0;fill:rgb(201, 232, 250)"/>
        </g>
        <g id="g_31" transform="matrix(1.0, 0.0, 0.0, 1.0, 0.0, 0.0)" style="fill-opacity:1.0;fill:rgb(201, 232, 250)">
          <path d="M 148.68,89.86 C 148.93,87.42 149.67000000000002,85.03 151.37,83.2 C 154.37,85.36 157.53,87.94000000000001 158.32,91.76 C 159.16,96.36 158.43,101.05999999999999 157.56,105.6 C 155.94,100.74 154.33,95.71 150.81,91.85 C 150.12,91.16 149.41,90.5 148.68,89.86 C 148.68,89.86 148.68,89.86 148.68,89.86 Z" style="fill-opacity:1.0;fill:rgb(201, 232, 250)"/>
        </g>
      </g>
      <g inkscape:groupmode="layer" id="g_32" inkscape:label="#8facdcff" transform="matrix(1.0, 0.0, 0.0, 1.0, 0.0, 0.0)" style="">
        <g id="g_33" transform="matrix(1.0, 0.0, 0.0, 1.0, 0.0, 0.0)" style="fill-opacity:1.0;fill:rgb(143, 172, 220)">
          <path d="M 87.97,58.45 C 90.59,58.17 93.72,57.15 95.97,59.05 C 98.35,61.37 99.92,65.13 98.29,68.31 C 96.59,72.07000000000001 91.67999999999999,72.79 88.05,72.18 C 82.53999999999999,70.62 82.28,62.79 86.15,59.35 C 86.61,59.120000000000005 87.52,58.67 87.97,58.45 &#10;M 89.21,60.3 C 85.27,61.44 84.81,66.86 87.61,69.41 C 90.35,71.1 95.16,70.8 96.33,67.3 C 97.99,63.199999999999996 93.66999999999999,57.379999999999995 89.21,60.3 C 89.21,60.3 89.21,60.3 89.21,60.3 Z" style="fill-opacity:1.0;fill:rgb(143, 172, 220)"/>
        </g>
      </g>
      <g inkscape:groupmode="layer" id="g_34" inkscape:label="#8eabdcff" transform="matrix(1.0, 0.0, 0.0, 1.0, 0.0, 0.0)" style="">
        <g id="g_35" transform="matrix(1.0, 0.0, 0.0, 1.0, 0.0, 0.0)" style="fill-opacity:1.0;fill:rgb(142, 171, 220)">
          <path d="M 65.17,59.36 C 66.72,59.13 68.3,59.21 69.86,59.37 C 73.4,61.559999999999995 75.86,66.53999999999999 73.29,70.35 C 70.59,76.25 59.09,73.8 59.99,66.96 C 60.230000000000004,63.67999999999999 62.57,61.12 65.17,59.36 &#10;M 62.57,69.47 C 64.37,71.5 67.28,71.53 69.78,71.79 C 72.53,69.09 73.14,64.47 69.93,61.88 C 65.71000000000001,58.6 60.35,65.36 62.57,69.47 C 62.57,69.47 62.57,69.47 62.57,69.47 Z" style="fill-opacity:1.0;fill:rgb(142, 171, 220)"/>
        </g>
      </g>
      <g inkscape:groupmode="layer" id="g_36" inkscape:label="#c9ebfeff" transform="matrix(1.0, 0.0, 0.0, 1.0, 0.0, 0.0)" style="">
        <g id="g_37" transform="matrix(1.0, 0.0, 0.0, 1.0, 0.0, 0.0)" style="fill-opacity:1.0;fill:rgb(201, 235, 254)">
          <path d="M 89.21,60.3 C 93.66999999999999,57.379999999999995 97.99,63.199999999999996 96.33,67.3 C 95.16,70.8 90.35,71.1 87.61,69.41 C 84.81,66.86 85.27,61.44 89.21,60.3 C 89.21,60.3 89.21,60.3 89.21,60.3 Z" style="fill-opacity:1.0;fill:rgb(201, 235, 254)"/>
        </g>
      </g>
      <g inkscape:groupmode="layer" id="g_38" inkscape:label="#d3c1c4ff" transform="matrix(1.0, 0.0, 0.0, 1.0, 0.0, 0.0)" style="">
        <g id="g_39" transform="matrix(1.0, 0.0, 0.0, 1.0, 0.0, 0.0)" style="fill-opacity:1.0;fill:rgb(211, 193, 196)">
          <path d="M 19.9,69.22 C 25.919999999999998,68.07 32.1,67.81 38.21,67.68 C 37.230000000000004,68.15 36.25,68.6 35.26,69.05 C 27.919999999999998,72.17 21.05,78.0 19.21,86.07 C 17.62,91.63 18.72,97.6 21.33,102.67 C 21.33,102.67 21.33,102.67 21.33,102.67 C 20.58,102.52 19.1,102.23 18.35,102.08 C 15.940000000000001,93.27 14.4,84.06 15.1,74.91 C 15.129999999999999,72.11999999999999 17.119999999999997,69.65 19.9,69.22 C 19.9,69.22 19.9,69.22 19.9,69.22 Z" style="fill-opacity:1.0;fill:rgb(211, 193, 196)"/>
        </g>
      </g>
      <g inkscape:groupmode="layer" id="g_40" inkscape:label="#d0b8cbff" transform="matrix(1.0, 0.0, 0.0, 1.0, 0.0, 0.0)" style="">
        <g id="g_41" transform="matrix(1.0, 0.0, 0.0, 1.0, 0.0, 0.0)" style="fill-opacity:1.0;fill:rgb(208, 184, 203)">
          <path d="M 139.92,72.74 C 140.67999999999998,70.94999999999999 141.39000000000001,69.13999999999999 142.06,67.32 C 145.55,67.82 149.07,68.26 152.43,69.37 C 151.48000000000002,71.07000000000001 150.53,72.77000000000001 149.59,74.48 C 146.39000000000001,73.8 143.14,73.35 139.92,72.74 C 139.92,72.74 139.92,72.74 139.92,72.74 Z" style="fill-opacity:1.0;fill:rgb(208, 184, 203)"/>
        </g>
      </g>
      <g inkscape:groupmode="layer" id="g_42" inkscape:label="#d3bfc3ff" transform="matrix(1.0, 0.0, 0.0, 1.0, 0.0, 0.0)" style="">
        <g id="g_43" transform="matrix(1.0, 0.0, 0.0, 1.0, 0.0, 0.0)" style="fill-opacity:1.0;fill:rgb(211, 191, 195)">
          <path d="M 154.5,68.25 C 158.4,67.89 162.76,67.59 166.26,69.68 C 169.62,72.54 168.95,77.44 169.17,81.39 C 166.35,77.67 163.52,73.73 159.47,71.26 C 157.81,70.26 156.15,69.26 154.5,68.25 C 154.5,68.25 154.5,68.25 154.5,68.25 Z" style="fill-opacity:1.0;fill:rgb(211, 191, 195)"/>
        </g>
      </g>
      <g inkscape:groupmode="layer" id="g_44" inkscape:label="#ba3e55ff" transform="matrix(1.0, 0.0, 0.0, 1.0, 0.0, 0.0)" style="">
        <g id="g_45" transform="matrix(1.0, 0.0, 0.0, 1.0, 0.0, 0.0)" style="fill-opacity:1.0;fill:rgb(186, 62, 85)">
          <path d="M 19.21,86.07 C 21.05,78.0 27.919999999999998,72.17 35.26,69.05 C 35.93,69.39 37.25,70.07 37.92,70.41 C 37.92,70.41 38.18,70.47 38.18,70.47 C 35.04,71.8 31.95,73.31 29.14,75.25 C 22.17,80.49 18.910000000000004,89.88000000000001 21.42,98.29 C 23.770000000000003,93.25 26.07,88.04 30.19,84.15 C 31.02,83.45 31.889999999999997,82.79 32.8,82.2 C 32.8,82.2 34.38,82.31 34.38,82.31 C 33.910000000000004,83.04 32.97,84.51 32.5,85.25 C 26.77,89.0 24.590000000000003,95.67999999999999 22.76,101.88 C 22.76,101.88 21.33,102.67 21.33,102.67 C 18.72,97.6 17.62,91.63 19.21,86.07 C 19.21,86.07 19.21,86.07 19.21,86.07 Z" style="fill-opacity:1.0;fill:rgb(186, 62, 85)"/>
        </g>
        <g id="g_46" transform="matrix(1.0, 0.0, 0.0, 1.0, 0.0, 0.0)" style="fill-opacity:1.0;fill:rgb(186, 62, 85)">
          <path d="M 159.47,71.26 C 163.52,73.73 166.35,77.67 169.17,81.39 C 170.19,83.83 171.02,86.35000000000001 171.66,88.92 C 170.85,88.75 169.23,88.42 168.42,88.25 C 168.03,87.83 167.26999999999998,86.98 166.88,86.56 C 164.1,83.21000000000001 160.28,81.09 156.58,78.92 C 156.47,78.39 156.24,77.33 156.13,76.8 C 160.99,78.64 164.67,82.37 168.66,85.53 C 166.53,79.66 161.76999999999998,75.45 157.07,71.62 C 157.67,71.53 158.87,71.35000000000001 159.47,71.26 C 159.47,71.26 159.47,71.26 159.47,71.26 Z" style="fill-opacity:1.0;fill:rgb(186, 62, 85)"/>
        </g>
        <g id="g_47" transform="matrix(1.0, 0.0, 0.0, 1.0, 0.0, 0.0)" style="fill-opacity:1.0;fill:rgb(186, 62, 85)">
          <path d="M 153.15,82.08 C 155.97,83.77 158.34,86.25999999999999 159.76,89.24 C 161.67999999999998,93.69 160.70999999999998,98.68 160.57,103.36 C 159.48999999999998,105.44 159.41,109.61 156.12,108.47 C 154.71,103.03 153.57999999999998,96.98 149.16,93.08 C 149.57999999999998,92.77 150.4,92.16 150.81,91.85 C 154.33,95.71 155.94,100.74 157.56,105.6 C 158.43,101.05999999999999 159.16,96.36 158.32,91.76 C 157.53,87.94000000000001 154.37,85.36 151.37,83.2 C 151.37,83.2 151.88,82.74 151.88,82.74 C 151.88,82.74 153.15,82.08 153.15,82.08 C 153.15,82.08 153.15,82.08 153.15,82.08 Z" style="fill-opacity:1.0;fill:rgb(186, 62, 85)"/>
        </g>
        <g id="g_48" transform="matrix(1.0, 0.0, 0.0, 1.0, 0.0, 0.0)" style="fill-opacity:1.0;fill:rgb(186, 62, 85)">
          <path d="M 39.25,84.76 C 39.25,84.76 39.68,85.21 39.68,85.21 C 39.68,85.21 40.9,86.52 40.9,86.52 C 38.129999999999995,88.55 35.480000000000004,90.79 33.27,93.43 C 28.730000000000004,99.54 25.94,107.41 28.07,114.99 C 30.6,109.33 33.2,103.55 37.7,99.14 C 39.220000000000006,97.53 40.879999999999995,96.06 42.65,94.73 C 42.55,95.28 42.36,96.38000000000001 42.26,96.93 C 36.89,102.54 31.200000000000003,108.71000000000001 30.1,116.75 C 29.270000000000003,117.32 28.41,117.95 27.34,117.92 C 25.43,114.3 25.02,110.1 25.62,106.1 C 26.91,97.41999999999999 32.49,90.07000000000001 39.25,84.76 C 39.25,84.76 39.25,84.76 39.25,84.76 Z" style="fill-opacity:1.0;fill:rgb(186, 62, 85)"/>
        </g>
        <g id="g_49" transform="matrix(1.0, 0.0, 0.0, 1.0, 0.0, 0.0)" style="fill-opacity:1.0;fill:rgb(186, 62, 85)">
          <path d="M 147.14,94.52 C 149.67999999999998,98.27 151.54000000000002,102.52000000000001 151.55,107.12 C 151.23000000000002,109.62 150.45,112.02000000000001 149.67,114.4 C 148.70999999999998,114.87 147.78,115.38 146.84,115.88 C 146.20000000000002,113.11 145.53,110.34 144.36,107.73 C 144.36,107.73 143.73,106.22 143.73,106.22 C 143.82,105.53 143.99,104.14 144.08,103.45 C 145.67000000000002,105.91 146.7,108.66000000000001 147.78,111.37 C 150.64000000000001,106.69 148.64999999999998,100.89999999999999 146.14,96.52 C 146.39,96.02 146.89,95.02 147.14,94.52 C 147.14,94.52 147.14,94.52 147.14,94.52 Z" style="fill-opacity:1.0;fill:rgb(186, 62, 85)"/>
        </g>
        <g id="g_50" transform="matrix(1.0, 0.0, 0.0, 1.0, 0.0, 0.0)" style="fill-opacity:1.0;fill:rgb(186, 62, 85)">
          <path d="M 41.09,107.02 C 41.82,104.55 42.81,102.15 44.34,100.06 C 44.440000000000005,100.81 44.629999999999995,102.31 44.73,103.06 C 42.83,108.17 41.99,113.66 43.02,119.06 C 45.31,115.24000000000001 46.900000000000006,111.0 49.74,107.53 C 49.74,107.53 51.62,107.68 51.62,107.68 C 51.269999999999996,108.21000000000001 50.57,109.27 50.22,109.8 C 48.019999999999996,113.16 46.21,116.74 44.49,120.36 C 44.11,121.0 43.34,122.28999999999999 42.95,122.94 C 39.46,118.39999999999999 40.400000000000006,112.3 41.09,107.02 C 41.09,107.02 41.09,107.02 41.09,107.02 Z" style="fill-opacity:1.0;fill:rgb(186, 62, 85)"/>
        </g>
      </g>
      <g inkscape:groupmode="layer" id="g_51" inkscape:label="#ca90a1ff" transform="matrix(1.0, 0.0, 0.0, 1.0, 0.0, 0.0)" style="">
        <g id="g_52" transform="matrix(1.0, 0.0, 0.0, 1.0, 0.0, 0.0)" style="fill-opacity:1.0;fill:rgb(202, 144, 161)">
          <path d="M 37.92,70.41 C 38.95,70.03 39.97,69.63000000000001 40.98,69.2 C 41.279999999999994,72.27 41.94,75.3 43.05,78.17 C 42.4,78.24 41.1,78.38000000000001 40.45,78.45 C 39.940000000000005,75.73 39.339999999999996,73.0 38.18,70.47 C 38.18,70.47 37.92,70.41 37.92,70.41 C 37.92,70.41 37.92,70.41 37.92,70.41 Z" style="fill-opacity:1.0;fill:rgb(202, 144, 161)"/>
        </g>
      </g>
      <g inkscape:groupmode="layer" id="g_53" inkscape:label="#cbd9ebff" transform="matrix(1.0, 0.0, 0.0, 1.0, 0.0, 0.0)" style="">
        <g id="g_54" transform="matrix(1.0, 0.0, 0.0, 1.0, 0.0, 0.0)" style="fill-opacity:1.0;fill:rgb(203, 217, 235)">
          <path d="M 152.43,69.37 C 154.01000000000002,70.04 155.54,70.83 157.07,71.62 C 161.76999999999998,75.45 166.53,79.66 168.66,85.53 C 164.67,82.37 160.99,78.64 156.13,76.8 C 154.01999999999998,75.86 151.83,75.09 149.59,74.48 C 150.53,72.77000000000001 151.48000000000002,71.07000000000001 152.43,69.37 C 152.43,69.37 152.43,69.37 152.43,69.37 Z" style="fill-opacity:1.0;fill:rgb(203, 217, 235)"/>
        </g>
        <g id="g_55" transform="matrix(1.0, 0.0, 0.0, 1.0, 0.0, 0.0)" style="fill-opacity:1.0;fill:rgb(203, 217, 235)">
          <path d="M 138.64,96.65 C 139.75,94.95 140.79,93.2 141.92,91.53 C 143.38,93.15 144.80999999999997,94.8 146.14,96.52 C 148.64999999999998,100.89999999999999 150.64000000000001,106.69 147.78,111.37 C 146.7,108.66000000000001 145.67000000000002,105.91 144.08,103.45 C 142.56,100.96000000000001 140.57,98.81 138.64,96.65 C 138.64,96.65 138.64,96.65 138.64,96.65 Z" style="fill-opacity:1.0;fill:rgb(203, 217, 235)"/>
        </g>
      </g>
      <g inkscape:groupmode="layer" id="g_56" inkscape:label="#cec6d9ff" transform="matrix(1.0, 0.0, 0.0, 1.0, 0.0, 0.0)" style="">
        <g id="g_57" transform="matrix(1.0, 0.0, 0.0, 1.0, 0.0, 0.0)" style="fill-opacity:1.0;fill:rgb(206, 198, 217)">
          <path d="M 29.14,75.25 C 31.95,73.31 35.04,71.8 38.18,70.47 C 39.339999999999996,73.0 39.940000000000005,75.73 40.45,78.45 C 37.660000000000004,79.13000000000001 35.15,80.58 32.8,82.2 C 31.889999999999997,82.79 31.02,83.45 30.19,84.15 C 29.93,81.17 29.61,78.2 29.14,75.25 C 29.14,75.25 29.14,75.25 29.14,75.25 Z" style="fill-opacity:1.0;fill:rgb(206, 198, 217)"/>
        </g>
      </g>
      <g inkscape:groupmode="layer" id="g_58" inkscape:label="#240e12ff" transform="matrix(1.0, 0.0, 0.0, 1.0, 0.0, 0.0)" style="">
        <g id="g_59" transform="matrix(1.0, 0.0, 0.0, 1.0, 0.0, 0.0)" style="fill-opacity:1.0;fill:rgb(36, 14, 18)">
          <path d="M 137.64,75.19 C 138.35999999999999,74.34 139.14,73.53999999999999 139.92,72.74 C 143.14,73.35 146.39000000000001,73.8 149.59,74.48 C 151.83,75.09 154.01999999999998,75.86 156.13,76.8 C 156.24,77.33 156.47,78.39 156.58,78.92 C 152.14000000000001,76.17 146.75,76.26 141.78,75.25 C 146.09,76.61 149.38,79.75 153.15,82.08 C 153.15,82.08 151.88,82.74 151.88,82.74 C 148.5,81.17 145.35,79.16 141.96,77.63 C 140.48000000000002,76.88 139.05999999999997,76.03 137.64,75.19 C 137.64,75.19 137.64,75.19 137.64,75.19 Z" style="fill-opacity:1.0;fill:rgb(36, 14, 18)"/>
        </g>
        <g id="g_60" transform="matrix(1.0, 0.0, 0.0, 1.0, 0.0, 0.0)" style="fill-opacity:1.0;fill:rgb(36, 14, 18)">
          <path d="M 32.8,82.2 C 35.15,80.58 37.660000000000004,79.13000000000001 40.45,78.45 C 41.1,78.38000000000001 42.4,78.24 43.05,78.17 C 43.05,78.17 44.12,79.06 44.12,79.06 C 44.51,80.73 44.589999999999996,82.45 44.48,84.15 C 43.269999999999996,84.92 42.07,85.71 40.9,86.52 C 40.9,86.52 39.68,85.21 39.68,85.21 C 41.71,83.92999999999999 43.23,82.09 41.54,79.73 C 39.12,80.49000000000001 36.74,81.37 34.38,82.31 C 34.38,82.31 32.8,82.2 32.8,82.2 C 32.8,82.2 32.8,82.2 32.8,82.2 Z" style="fill-opacity:1.0;fill:rgb(36, 14, 18)"/>
        </g>
        <g id="g_61" transform="matrix(1.0, 0.0, 0.0, 1.0, 0.0, 0.0)" style="fill-opacity:1.0;fill:rgb(36, 14, 18)">
          <path d="M 134.89,83.8 C 134.89,83.8 136.76,83.65 136.76,83.65 C 138.54999999999998,84.26 140.32,84.92 142.06,85.65 C 141.36,86.93 140.68,88.22 140,89.52 C 138.46,88.05 136.78,86.75 135.2,85.34 C 135.2,85.34 134.89,83.8 134.89,83.8 C 134.89,83.8 134.89,83.8 134.89,83.8 Z" style="fill-opacity:1.0;fill:rgb(36, 14, 18)"/>
        </g>
        <g id="g_62" transform="matrix(1.0, 0.0, 0.0, 1.0, 0.0, 0.0)" style="fill-opacity:1.0;fill:rgb(36, 14, 18)">
          <path d="M 42.65,94.73 C 44.42,93.29 46.5,92.31 48.67,91.63 C 50.53,91.67 52.440000000000005,91.78 54.09,92.75 C 53.120000000000005,93.59 52.14,94.43 51.15,95.26 C 49.14,96.9 47.230000000000004,98.67 45.63,100.72 C 45.63,100.72 45.3,101.53 45.3,101.53 C 45.3,101.53 44.73,103.06 44.73,103.06 C 44.629999999999995,102.31 44.440000000000005,100.81 44.34,100.06 C 45.88,97.71000000000001 47.730000000000004,95.59 49.53,93.45 C 46.800000000000004,93.87 44.199999999999996,94.92 42.26,96.93 C 42.36,96.38000000000001 42.55,95.28 42.65,94.73 C 42.65,94.73 42.65,94.73 42.65,94.73 Z" style="fill-opacity:1.0;fill:rgb(36, 14, 18)"/>
        </g>
      </g>
      <g inkscape:groupmode="layer" id="g_63" inkscape:label="#e7b9bdff" transform="matrix(1.0, 0.0, 0.0, 1.0, 0.0, 0.0)" style="">
        <g id="g_64" transform="matrix(1.0, 0.0, 0.0, 1.0, 0.0, 0.0)" style="fill-opacity:1.0;fill:rgb(231, 185, 189)">
          <path d="M 141.78,75.25 C 146.75,76.26 152.14000000000001,76.17 156.58,78.92 C 160.28,81.09 164.1,83.21000000000001 166.88,86.56 C 165.01,92.24000000000001 163.92,98.3 160.57,103.36 C 160.70999999999998,98.68 161.67999999999998,93.69 159.76,89.24 C 158.34,86.25999999999999 155.97,83.77 153.15,82.08 C 149.38,79.75 146.09,76.61 141.78,75.25 C 141.78,75.25 141.78,75.25 141.78,75.25 Z" style="fill-opacity:1.0;fill:rgb(231, 185, 189)"/>
        </g>
        <g id="g_65" transform="matrix(1.0, 0.0, 0.0, 1.0, 0.0, 0.0)" style="fill-opacity:1.0;fill:rgb(231, 185, 189)">
          <path d="M 142.22,88 C 144.57,89.64 146.96,91.24 149.16,93.08 C 153.57999999999998,96.98 154.71,103.03 156.12,108.47 C 154.58,108.06 153.07000000000002,107.59 151.55,107.12 C 151.54000000000002,102.52000000000001 149.67999999999998,98.27 147.14,94.52 C 145.94,92.03999999999999 144.18,89.91 142.22,88 C 142.22,88 142.22,88 142.22,88 Z" style="fill-opacity:1.0;fill:rgb(231, 185, 189)"/>
        </g>
      </g>
      <g inkscape:groupmode="layer" id="g_66" inkscape:label="#cae3f6ff" transform="matrix(1.0, 0.0, 0.0, 1.0, 0.0, 0.0)" style="">
        <g id="g_67" transform="matrix(1.0, 0.0, 0.0, 1.0, 0.0, 0.0)" style="fill-opacity:1.0;fill:rgb(202, 227, 246)">
          <path d="M 21.42,98.29 C 18.910000000000004,89.88000000000001 22.17,80.49 29.14,75.25 C 29.61,78.2 29.93,81.17 30.19,84.15 C 26.07,88.04 23.770000000000003,93.25 21.42,98.29 C 21.42,98.29 21.42,98.29 21.42,98.29 Z" style="fill-opacity:1.0;fill:rgb(202, 227, 246)"/>
        </g>
        <g id="g_68" transform="matrix(1.0, 0.0, 0.0, 1.0, 0.0, 0.0)" style="fill-opacity:1.0;fill:rgb(202, 227, 246)">
          <path d="M 33.27,93.43 C 35.34,94.82000000000001 36.67,96.91 37.7,99.14 C 33.2,103.55 30.6,109.33 28.07,114.99 C 25.94,107.41 28.730000000000004,99.54 33.27,93.43 C 33.27,93.43 33.27,93.43 33.27,93.43 Z" style="fill-opacity:1.0;fill:rgb(202, 227, 246)"/>
        </g>
      </g>
      <g inkscape:groupmode="layer" id="g_69" inkscape:label="#d68ea1ff" transform="matrix(1.0, 0.0, 0.0, 1.0, 0.0, 0.0)" style="">
        <g id="g_70" transform="matrix(1.0, 0.0, 0.0, 1.0, 0.0, 0.0)" style="fill-opacity:1.0;fill:rgb(214, 142, 161)">
          <path d="M 128.75,93.04 C 131.54,87.01 134.51999999999998,81.06 137.64,75.19 C 139.05999999999997,76.03 140.48000000000002,76.88 141.96,77.63 C 141.43,77.6 140.38,77.55 139.85,77.53 C 138.66,79.49 137.73999999999998,81.59 136.76,83.65 C 136.76,83.65 134.89,83.8 134.89,83.8 C 134.89,83.8 135.2,85.34 135.2,85.34 C 133.86999999999998,88.13000000000001 132.38000000000002,90.84 130.77,93.47 C 130.27,93.36 129.25,93.15 128.75,93.04 C 128.75,93.04 128.75,93.04 128.75,93.04 Z" style="fill-opacity:1.0;fill:rgb(214, 142, 161)"/>
        </g>
      </g>
      <g inkscape:groupmode="layer" id="g_71" inkscape:label="#cfc2d5ff" transform="matrix(1.0, 0.0, 0.0, 1.0, 0.0, 0.0)" style="">
        <g id="g_72" transform="matrix(1.0, 0.0, 0.0, 1.0, 0.0, 0.0)" style="fill-opacity:1.0;fill:rgb(207, 194, 213)">
          <path d="M 136.76,83.65 C 137.73999999999998,81.59 138.66,79.49 139.85,77.53 C 140.38,77.55 141.43,77.6 141.96,77.63 C 145.35,79.16 148.5,81.17 151.88,82.74 C 151.88,82.74 151.37,83.2 151.37,83.2 C 149.67000000000002,85.03 148.93,87.42 148.68,89.86 C 146.73000000000002,88.1 144.5,86.66000000000001 142.06,85.65 C 140.32,84.92 138.54999999999998,84.26 136.76,83.65 C 136.76,83.65 136.76,83.65 136.76,83.65 Z" style="fill-opacity:1.0;fill:rgb(207, 194, 213)"/>
        </g>
      </g>
      <g inkscape:groupmode="layer" id="g_73" inkscape:label="#b0848fff" transform="matrix(1.0, 0.0, 0.0, 1.0, 0.0, 0.0)" style="">
        <g id="g_74" transform="matrix(1.0, 0.0, 0.0, 1.0, 0.0, 0.0)" style="fill-opacity:1.0;fill:rgb(176, 132, 143)">
          <path d="M 34.38,82.31 C 36.74,81.37 39.12,80.49000000000001 41.54,79.73 C 43.23,82.09 41.71,83.92999999999999 39.68,85.21 C 39.68,85.21 39.25,84.76 39.25,84.76 C 37.06,83.81 34.7,84.88 32.5,85.25 C 32.97,84.51 33.910000000000004,83.04 34.38,82.31 C 34.38,82.31 34.38,82.31 34.38,82.31 Z" style="fill-opacity:1.0;fill:rgb(176, 132, 143)"/>
        </g>
        <g id="g_75" transform="matrix(1.0, 0.0, 0.0, 1.0, 0.0, 0.0)" style="fill-opacity:1.0;fill:rgb(176, 132, 143)">
          <path d="M 124.01,95.96 C 128.24,94.08999999999999 132.87,96.30000000000001 136.78,98.01 C 139.01,100.15 141.0,102.53 142.83,105.02 C 136.71,101.81 129.9,99.77 122.97,99.55 C 117.53999999999999,100.08 112.37,102.10000000000001 106.95,102.81 C 97.51,104.17 87.93,105.67999999999999 78.37,104.86 C 74.16000000000001,104.48 69.95,103.88 65.91,102.57 C 62.33,102.30999999999999 58.88,103.63 55.32,103.78 C 57.43,101.55 60.099999999999994,99.98 62.91,98.78 C 72.37,102.78 82.9,102.9 93,102.37 C 103.53,101.51 114.19,100.02 124.01,95.96 C 124.01,95.96 124.01,95.96 124.01,95.96 Z" style="fill-opacity:1.0;fill:rgb(176, 132, 143)"/>
        </g>
      </g>
      <g inkscape:groupmode="layer" id="g_76" inkscape:label="#e7b5baff" transform="matrix(1.0, 0.0, 0.0, 1.0, 0.0, 0.0)" style="">
        <g id="g_77" transform="matrix(1.0, 0.0, 0.0, 1.0, 0.0, 0.0)" style="fill-opacity:1.0;fill:rgb(231, 181, 186)">
          <path d="M 32.5,85.25 C 34.7,84.88 37.06,83.81 39.25,84.76 C 32.49,90.07000000000001 26.91,97.41999999999999 25.62,106.1 C 24.53,104.55999999999999 23.229999999999997,103.14 21.33,102.67 C 21.33,102.67 21.33,102.67 21.33,102.67 C 21.33,102.67 22.76,101.88 22.76,101.88 C 24.590000000000003,95.67999999999999 26.77,89.0 32.5,85.25 C 32.5,85.25 32.5,85.25 32.5,85.25 Z" style="fill-opacity:1.0;fill:rgb(231, 181, 186)"/>
        </g>
      </g>
      <g inkscape:groupmode="layer" id="g_78" inkscape:label="#cfbdd0ff" transform="matrix(1.0, 0.0, 0.0, 1.0, 0.0, 0.0)" style="">
        <g id="g_79" transform="matrix(1.0, 0.0, 0.0, 1.0, 0.0, 0.0)" style="fill-opacity:1.0;fill:rgb(207, 189, 208)">
          <path d="M 40.9,86.52 C 42.07,85.71 43.269999999999996,84.92 44.48,84.15 C 45.879999999999995,86.64 47.29,89.11999999999999 48.67,91.63 C 46.5,92.31 44.42,93.29 42.65,94.73 C 40.879999999999995,96.06 39.220000000000006,97.53 37.7,99.14 C 36.67,96.91 35.34,94.82000000000001 33.27,93.43 C 35.480000000000004,90.79 38.129999999999995,88.55 40.9,86.52 C 40.9,86.52 40.9,86.52 40.9,86.52 Z" style="fill-opacity:1.0;fill:rgb(207, 189, 208)"/>
        </g>
      </g>
      <g inkscape:groupmode="layer" id="g_80" inkscape:label="#fc95a8ff" transform="matrix(1.0, 0.0, 0.0, 1.0, 0.0, 0.0)" style="">
        <g id="g_81" transform="matrix(1.0, 0.0, 0.0, 1.0, 0.0, 0.0)" style="fill-opacity:1.0;fill:rgb(252, 149, 168)">
          <path d="M 120.22,85.22 C 121.4,84.78 122.27,85.16 122.82,86.35 C 122.38999999999999,87.97999999999999 120.60000000000001,88.81 119.06,88.06 C 118.55,86.63 118.94,85.69 120.22,85.22 C 120.22,85.22 120.22,85.22 120.22,85.22 Z" style="fill-opacity:1.0;fill:rgb(252, 149, 168)"/>
        </g>
      </g>
      <g inkscape:groupmode="layer" id="g_82" inkscape:label="#d0bdd0ff" transform="matrix(1.0, 0.0, 0.0, 1.0, 0.0, 0.0)" style="">
        <g id="g_83" transform="matrix(1.0, 0.0, 0.0, 1.0, 0.0, 0.0)" style="fill-opacity:1.0;fill:rgb(208, 189, 208)">
          <path d="M 130.77,93.47 C 132.38000000000002,90.84 133.86999999999998,88.13000000000001 135.2,85.34 C 136.78,86.75 138.46,88.05 140,89.52 C 140.66,90.16 141.29,90.85 141.92,91.53 C 140.79,93.2 139.75,94.95 138.64,96.65 C 138.64,96.65 138.26,97.09 138.26,97.09 C 135.95,95.53 133.47,94.22 130.77,93.47 C 130.77,93.47 130.77,93.47 130.77,93.47 Z" style="fill-opacity:1.0;fill:rgb(208, 189, 208)"/>
        </g>
        <g id="g_84" transform="matrix(1.0, 0.0, 0.0, 1.0, 0.0, 0.0)" style="fill-opacity:1.0;fill:rgb(208, 189, 208)">
          <path d="M 45.63,100.72 C 47.230000000000004,98.67 49.14,96.9 51.15,95.26 C 52.9,96.97 54.489999999999995,98.83 55.94,100.8 C 54.129999999999995,102.47 52.43,104.24 50.86,106.13 C 49.38,104.17 47.449999999999996,102.67 45.3,101.53 C 45.3,101.53 45.63,100.72 45.63,100.72 C 45.63,100.72 45.63,100.72 45.63,100.72 Z" style="fill-opacity:1.0;fill:rgb(208, 189, 208)"/>
        </g>
      </g>
      <g inkscape:groupmode="layer" id="g_85" inkscape:label="#8b4553ff" transform="matrix(1.0, 0.0, 0.0, 1.0, 0.0, 0.0)" style="">
        <g id="g_86" transform="matrix(1.0, 0.0, 0.0, 1.0, 0.0, 0.0)" style="fill-opacity:1.0;fill:rgb(139, 69, 83)">
          <path d="M 142.06,85.65 C 144.5,86.66000000000001 146.73000000000002,88.1 148.68,89.86 C 149.41,90.5 150.12,91.16 150.81,91.85 C 150.4,92.16 149.57999999999998,92.77 149.16,93.08 C 146.96,91.24 144.57,89.64 142.22,88 C 144.18,89.91 145.94,92.03999999999999 147.14,94.52 C 146.89,95.02 146.39,96.02 146.14,96.52 C 144.80999999999997,94.8 143.38,93.15 141.92,91.53 C 141.29,90.85 140.66,90.16 140,89.52 C 140.68,88.22 141.36,86.93 142.06,85.65 C 142.06,85.65 142.06,85.65 142.06,85.65 Z" style="fill-opacity:1.0;fill:rgb(139, 69, 83)"/>
        </g>
      </g>
      <g inkscape:groupmode="layer" id="g_87" inkscape:label="#cbcacdff" transform="matrix(1.0, 0.0, 0.0, 1.0, 0.0, 0.0)" style="">
        <g id="g_88" transform="matrix(1.0, 0.0, 0.0, 1.0, 0.0, 0.0)" style="fill-opacity:1.0;fill:rgb(203, 202, 205)">
          <path d="M 160.57,103.36 C 163.92,98.3 165.01,92.24000000000001 166.88,86.56 C 167.26999999999998,86.98 168.03,87.83 168.42,88.25 C 167.32999999999998,96.46000000000001 165.41,104.59 162.25,112.26 C 161.44,114.16000000000001 160.98000000000002,116.17999999999999 160.74,118.22 C 161.91,117.15 162.98000000000002,116.0 164.02,114.8 C 164.4,115.98 164.79000000000002,117.16999999999999 165.18,118.35 C 165.18,118.35 164.84,119.76 164.84,119.76 C 164.32,121.45 164.42999999999998,123.21000000000001 164.73,124.92 C 166.07999999999998,133.71 167.03,142.69 165.8,151.55 C 164.76000000000002,152.98000000000002 163.69,154.38 162.62,155.79 C 157.19,156.17999999999998 151.74,156.09 146.3,155.83 C 146.13000000000002,153.92000000000002 145.97,152.01000000000002 145.8,150.11 C 145.23000000000002,150.75 144.67,151.39000000000001 144.1,152.03 C 144.38,148.03 144.03,144.02 143.5,140.05 C 140.84,141.28 138.15,142.46 135.37,143.43 C 135.4,141.18 135.49,138.94 135.61,136.71 C 140.88000000000002,138.18 146.64000000000001,137.83 151.61,135.5 C 155.74,133.12 157.04,127.38 154.9,123.24 C 153.64000000000001,120.1 154.82999999999998,113.78 149.67,114.4 C 150.45,112.02000000000001 151.23000000000002,109.62 151.55,107.12 C 153.07000000000002,107.59 154.58,108.06 156.12,108.47 C 159.41,109.61 159.48999999999998,105.44 160.57,103.36 C 160.57,103.36 160.57,103.36 160.57,103.36 Z" style="fill-opacity:1.0;fill:rgb(203, 202, 205)"/>
        </g>
      </g>
      <g inkscape:groupmode="layer" id="g_89" inkscape:label="#040202ff" transform="matrix(1.0, 0.0, 0.0, 1.0, 0.0, 0.0)" style="">
        <g id="g_90" transform="matrix(1.0, 0.0, 0.0, 1.0, 0.0, 0.0)" style="fill-opacity:1.0;fill:rgb(4, 2, 2)">
          <path d="M 124.59,92.33 C 125.98,92.53 127.37,92.76 128.75,93.04 C 129.25,93.15 130.27,93.36 130.77,93.47 C 133.47,94.22 135.95,95.53 138.26,97.09 C 138.26,97.09 136.78,98.01 136.78,98.01 C 132.87,96.30000000000001 128.24,94.08999999999999 124.01,95.96 C 114.19,100.02 103.53,101.51 93,102.37 C 82.9,102.9 72.37,102.78 62.91,98.78 C 60.099999999999994,99.98 57.43,101.55 55.32,103.78 C 54.05,105.04 52.839999999999996,106.36000000000001 51.62,107.68 C 51.62,107.68 49.74,107.53 49.74,107.53 C 49.74,107.53 50.86,106.13 50.86,106.13 C 52.43,104.24 54.129999999999995,102.47 55.94,100.8 C 58.29,98.85 61.06,97.49 63.89,96.38 C 67.98,98.5 72.61,99.04 77.12,99.51 C 88.01,100.33 98.97,99.55 109.72,97.71 C 114.9,96.69999999999999 120.21000000000001,95.42999999999999 124.59,92.33 C 124.59,92.33 124.59,92.33 124.59,92.33 Z" style="fill-opacity:1.0;fill:rgb(4, 2, 2)"/>
        </g>
      </g>
      <g inkscape:groupmode="layer" id="g_91" inkscape:label="#a28a93ff" transform="matrix(1.0, 0.0, 0.0, 1.0, 0.0, 0.0)" style="">
        <g id="g_92" transform="matrix(1.0, 0.0, 0.0, 1.0, 0.0, 0.0)" style="fill-opacity:1.0;fill:rgb(162, 138, 147)">
          <path d="M 42.26,96.93 C 44.199999999999996,94.92 46.800000000000004,93.87 49.53,93.45 C 47.730000000000004,95.59 45.88,97.71000000000001 44.34,100.06 C 42.81,102.15 41.82,104.55 41.09,107.02 C 41.09,107.02 41.15,105.86 41.15,105.86 C 36.949999999999996,108.95 34.06,113.4 30.1,116.75 C 31.200000000000003,108.71000000000001 36.89,102.54 42.26,96.93 C 42.26,96.93 42.26,96.93 42.26,96.93 Z" style="fill-opacity:1.0;fill:rgb(162, 138, 147)"/>
        </g>
      </g>
      <g inkscape:groupmode="layer" id="g_93" inkscape:label="#884452ff" transform="matrix(1.0, 0.0, 0.0, 1.0, 0.0, 0.0)" style="">
        <g id="g_94" transform="matrix(1.0, 0.0, 0.0, 1.0, 0.0, 0.0)" style="fill-opacity:1.0;fill:rgb(136, 68, 82)">
          <path d="M 138.26,97.09 C 138.26,97.09 138.64,96.65 138.64,96.65 C 140.57,98.81 142.56,100.96000000000001 144.08,103.45 C 143.99,104.14 143.82,105.53 143.73,106.22 C 143.73,106.22 142.83,105.02 142.83,105.02 C 141.0,102.53 139.01,100.15 136.78,98.01 C 136.78,98.01 138.26,97.09 138.26,97.09 C 138.26,97.09 138.26,97.09 138.26,97.09 Z" style="fill-opacity:1.0;fill:rgb(136, 68, 82)"/>
        </g>
      </g>
      <g inkscape:groupmode="layer" id="g_95" inkscape:label="#d5bfc2ff" transform="matrix(1.0, 0.0, 0.0, 1.0, 0.0, 0.0)" style="">
        <g id="g_96" transform="matrix(1.0, 0.0, 0.0, 1.0, 0.0, 0.0)" style="fill-opacity:1.0;fill:rgb(213, 191, 194)">
          <path d="M 106.95,102.81 C 112.37,102.10000000000001 117.53999999999999,100.08 122.97,99.55 C 129.9,99.77 136.71,101.81 142.83,105.02 C 142.83,105.02 143.73,106.22 143.73,106.22 C 143.73,106.22 144.36,107.73 144.36,107.73 C 142.8,106.96000000000001 141.25,106.19 139.7,105.41 C 131.79,108.39999999999999 123.82000000000001,111.25 115.62,113.38 C 115.55000000000001,114.72 115.47,116.05000000000001 115.41,117.4 C 113.92,115.36 113.62,112.11999999999999 111.15,111.05 C 110.64,114.85 110.67,118.69000000000001 110.4,122.51 C 107.99000000000001,122.5 105.50999999999999,122.33 103.21,123.19 C 94.64999999999999,124.78999999999999 85.98,125.75 77.28,126.12 C 76.97,127.5 76.66,128.88 76.36,130.26 C 75.67999999999999,129.14999999999998 75.67999999999999,127.21 74.11,126.97 C 72.84,131.6 73.77,136.51 73.13,141.23 C 69.92999999999999,136.84 69.02,131.34 68.21,126.1 C 69.69,125.69999999999999 71.17,125.24000000000001 72.43,124.34 C 70.94000000000001,124.3 69.44,124.28 67.94,124.29 C 67.8,121.95 67.66,119.61 67.6,117.28 C 71.14999999999999,117.09 75.17,116.48 77.27,113.23 C 79.33,110.89 78.93,107.67999999999999 78.37,104.86 C 87.93,105.67999999999999 97.51,104.17 106.95,102.81 &#10;M 114.29,105.23 C 111.78,106.99000000000001 114.14,111.27 117,109.96 C 119.4,109.66999999999999 118.65,106.93 118.81,105.28 C 117.36,104.8 115.53,103.72 114.29,105.23 &#10;M 92.38,106.38 C 89.99,107.66 88.14,110.60000000000001 89.83,113.18 C 91.97,116.98 98.94000000000001,114.17999999999999 98.04,109.94 C 98.08000000000001,107.31 94.69,105.06 92.38,106.38 C 92.38,106.38 92.38,106.38 92.38,106.38 Z" style="fill-opacity:1.0;fill:rgb(213, 191, 194)"/>
        </g>
      </g>
      <g inkscape:groupmode="layer" id="g_97" inkscape:label="#cccacdff" transform="matrix(1.0, 0.0, 0.0, 1.0, 0.0, 0.0)" style="">
        <g id="g_98" transform="matrix(1.0, 0.0, 0.0, 1.0, 0.0, 0.0)" style="fill-opacity:1.0;fill:rgb(204, 202, 205)">
          <path d="M 18.35,102.08 C 19.1,102.23 20.58,102.52 21.33,102.67 C 23.229999999999997,103.14 24.53,104.55999999999999 25.62,106.1 C 25.02,110.1 25.43,114.3 27.34,117.92 C 28.41,117.95 29.270000000000003,117.32 30.1,116.75 C 34.06,113.4 36.949999999999996,108.95 41.15,105.86 C 41.15,105.86 41.09,107.02 41.09,107.02 C 40.400000000000006,112.3 39.46,118.39999999999999 42.95,122.94 C 43.34,122.28999999999999 44.11,121.0 44.49,120.36 C 49.11,120.13 53.79,121.39 57.48,124.22 C 57.48,124.22 59.04,124.52 59.04,124.52 C 59.68,124.63 60.949999999999996,124.84 61.58,124.95 C 60.68,129.57 59.879999999999995,134.22 58.94,138.84 C 58.48,140.45000000000002 58.34,142.60999999999999 56.42,143.16 C 55.58,141.95 55.84,139.28 54.07,139.08 C 52.27,141.3 51.22,144.32000000000002 48.49,145.61 C 46.09,146.98000000000002 42.89,147.63000000000002 41.88,150.55 C 40.46,152.67000000000002 40.11,155.17 40.31,157.66 C 35.56,157.5 30.839999999999996,156.84 26.08,156.77 C 23.61,156.55 24.41,153.17000000000002 23.66,151.46 C 23.16,151.54000000000002 22.15,151.70999999999998 21.65,151.79 C 21.95,143.32 23.87,135.05 24.7,126.66 C 20.939999999999998,138.48 20.27,151.10999999999999 20.8,163.42 C 19.51,168.85999999999999 19.7,174.46 19.88,180 C 19.88,180 17.53,180 17.53,180 C 16.93,172.78 16.97,165.51999999999998 17.31,158.29 C 14.319999999999999,160.41 10.82,161.87 7.12,160.8 C 9.72,156.08 12.75,151.48000000000002 14.12,146.21 C 16.93,136.99 17.93,126.99 23.21,118.72 C 21.8,113.11 19.830000000000002,107.67 18.35,102.08 C 18.35,102.08 18.35,102.08 18.35,102.08 Z" style="fill-opacity:1.0;fill:rgb(204, 202, 205)"/>
        </g>
      </g>
      <g inkscape:groupmode="layer" id="g_99" inkscape:label="#ccd3e6ff" transform="matrix(1.0, 0.0, 0.0, 1.0, 0.0, 0.0)" style="">
        <g id="g_100" transform="matrix(1.0, 0.0, 0.0, 1.0, 0.0, 0.0)" style="fill-opacity:1.0;fill:rgb(204, 211, 230)">
          <path d="M 44.73,103.06 C 44.73,103.06 45.3,101.53 45.3,101.53 C 47.449999999999996,102.67 49.38,104.17 50.86,106.13 C 50.86,106.13 49.74,107.53 49.74,107.53 C 46.900000000000006,111.0 45.31,115.24000000000001 43.02,119.06 C 41.99,113.66 42.83,108.17 44.73,103.06 C 44.73,103.06 44.73,103.06 44.73,103.06 Z" style="fill-opacity:1.0;fill:rgb(204, 211, 230)"/>
        </g>
      </g>
      <g inkscape:groupmode="layer" id="g_101" inkscape:label="#dbb2b9ff" transform="matrix(1.0, 0.0, 0.0, 1.0, 0.0, 0.0)" style="">
        <g id="g_102" transform="matrix(1.0, 0.0, 0.0, 1.0, 0.0, 0.0)" style="fill-opacity:1.0;fill:rgb(219, 178, 185)">
          <path d="M 55.32,103.78 C 58.88,103.63 62.33,102.30999999999999 65.91,102.57 C 62.48,103.71 61.089999999999996,106.97 60.54,110.28 C 57.15,109.59 53.66,109.1 50.22,109.8 C 50.57,109.27 51.269999999999996,108.21000000000001 51.62,107.68 C 52.839999999999996,106.36000000000001 54.05,105.04 55.32,103.78 C 55.32,103.78 55.32,103.78 55.32,103.78 Z" style="fill-opacity:1.0;fill:rgb(219, 178, 185)"/>
        </g>
      </g>
      <g inkscape:groupmode="layer" id="g_103" inkscape:label="#eec8d0ff" transform="matrix(1.0, 0.0, 0.0, 1.0, 0.0, 0.0)" style="">
        <g id="g_104" transform="matrix(1.0, 0.0, 0.0, 1.0, 0.0, 0.0)" style="fill-opacity:1.0;fill:rgb(238, 200, 208)">
          <path d="M 60.54,110.28 C 61.089999999999996,106.97 62.48,103.71 65.91,102.57 C 69.95,103.88 74.16000000000001,104.48 78.37,104.86 C 78.93,107.67999999999999 79.33,110.89 77.27,113.23 C 75.17,116.48 71.14999999999999,117.09 67.6,117.28 C 67.53999999999999,115.05 67.51,112.82 67.39,110.6 C 65.7,111.86 65.05,113.91999999999999 64.36,115.82 C 62.96,114.05999999999999 61.69,112.21000000000001 60.54,110.28 C 60.54,110.28 60.54,110.28 60.54,110.28 Z" style="fill-opacity:1.0;fill:rgb(238, 200, 208)"/>
        </g>
      </g>
      <g inkscape:groupmode="layer" id="g_105" inkscape:label="#edcfd6ff" transform="matrix(1.0, 0.0, 0.0, 1.0, 0.0, 0.0)" style="">
        <g id="g_106" transform="matrix(1.0, 0.0, 0.0, 1.0, 0.0, 0.0)" style="fill-opacity:1.0;fill:rgb(237, 207, 214)">
          <path d="M 114.29,105.23 C 115.53,103.72 117.36,104.8 118.81,105.28 C 118.65,106.93 119.4,109.66999999999999 117,109.96 C 114.14,111.27 111.78,106.99000000000001 114.29,105.23 C 114.29,105.23 114.29,105.23 114.29,105.23 Z" style="fill-opacity:1.0;fill:rgb(237, 207, 214)"/>
        </g>
      </g>
      <g inkscape:groupmode="layer" id="g_107" inkscape:label="#d1c6c7ff" transform="matrix(1.0, 0.0, 0.0, 1.0, 0.0, 0.0)" style="">
        <g id="g_108" transform="matrix(1.0, 0.0, 0.0, 1.0, 0.0, 0.0)" style="fill-opacity:1.0;fill:rgb(209, 198, 199)">
          <path d="M 115.62,113.38 C 123.82000000000001,111.25 131.79,108.39999999999999 139.7,105.41 C 141.25,106.19 142.8,106.96000000000001 144.36,107.73 C 145.53,110.34 146.20000000000002,113.11 146.84,115.88 C 146.34,116.11999999999999 145.35000000000002,116.61 144.86,116.85 C 143.03,116.8 141.2,116.67 139.38,116.56 C 137.60999999999999,114.7 135.32,112.41 132.51,113.63 C 128.01,115.52 129.17000000000002,121.32 127.43,125.07 C 122.78,123.74 118.25,121.45 115.41,117.4 C 115.47,116.05000000000001 115.55000000000001,114.72 115.62,113.38 C 115.62,113.38 115.62,113.38 115.62,113.38 Z" style="fill-opacity:1.0;fill:rgb(209, 198, 199)"/>
        </g>
      </g>
      <g inkscape:groupmode="layer" id="g_109" inkscape:label="#edcdd3ff" transform="matrix(1.0, 0.0, 0.0, 1.0, 0.0, 0.0)" style="">
        <g id="g_110" transform="matrix(1.0, 0.0, 0.0, 1.0, 0.0, 0.0)" style="fill-opacity:1.0;fill:rgb(237, 205, 211)">
          <path d="M 92.38,106.38 C 94.69,105.06 98.08000000000001,107.31 98.04,109.94 C 98.94000000000001,114.17999999999999 91.97,116.98 89.83,113.18 C 88.14,110.60000000000001 89.99,107.66 92.38,106.38 C 92.38,106.38 92.38,106.38 92.38,106.38 Z" style="fill-opacity:1.0;fill:rgb(237, 205, 211)"/>
        </g>
      </g>
      <g inkscape:groupmode="layer" id="g_111" inkscape:label="#d5bfc3ff" transform="matrix(1.0, 0.0, 0.0, 1.0, 0.0, 0.0)" style="">
        <g id="g_112" transform="matrix(1.0, 0.0, 0.0, 1.0, 0.0, 0.0)" style="fill-opacity:1.0;fill:rgb(213, 191, 195)">
          <path d="M 50.22,109.8 C 53.66,109.1 57.15,109.59 60.54,110.28 C 61.69,112.21000000000001 62.96,114.05999999999999 64.36,115.82 C 63.55,118.36 62.83,120.93 62.1,123.5 C 60.690000000000005,123.06 59.29,122.6 57.89,122.16 C 58.25,122.96 58.64,123.74 59.04,124.52 C 59.04,124.52 57.48,124.22 57.48,124.22 C 53.79,121.39 49.11,120.13 44.49,120.36 C 46.21,116.74 48.019999999999996,113.16 50.22,109.8 C 50.22,109.8 50.22,109.8 50.22,109.8 Z" style="fill-opacity:1.0;fill:rgb(213, 191, 195)"/>
        </g>
      </g>
      <g inkscape:groupmode="layer" id="g_113" inkscape:label="#090808ff" transform="matrix(1.0, 0.0, 0.0, 1.0, 0.0, 0.0)" style="">
        <g id="g_114" transform="matrix(1.0, 0.0, 0.0, 1.0, 0.0, 0.0)" style="fill-opacity:1.0;fill:rgb(9, 8, 8)">
          <path d="M 64.36,115.82 C 65.05,113.91999999999999 65.7,111.86 67.39,110.6 C 67.51,112.82 67.53999999999999,115.05 67.6,117.28 C 67.66,119.61 67.8,121.95 67.94,124.29 C 69.44,124.28 70.94000000000001,124.3 72.43,124.34 C 71.17,125.24000000000001 69.69,125.69999999999999 68.21,126.1 C 69.02,131.34 69.92999999999999,136.84 73.13,141.23 C 73.77,136.51 72.84,131.6 74.11,126.97 C 75.67999999999999,127.21 75.67999999999999,129.14999999999998 76.36,130.26 C 77.76,134.44 80.08,138.69 84.25,140.65 C 90.94,143.65 98.64,139.32999999999998 105.22,142.38 C 105.73,140.69 106.27,139.0 106.82,137.31 C 108.52,133.19 109.64999999999999,128.87 110.13,124.43 C 107.78,124.29 105.46,123.87 103.21,123.19 C 105.50999999999999,122.33 107.99000000000001,122.5 110.4,122.51 C 110.67,118.69000000000001 110.64,114.85 111.15,111.05 C 113.62,112.11999999999999 113.92,115.36 115.41,117.4 C 118.25,121.45 122.78,123.74 127.43,125.07 C 129.17000000000002,121.32 128.01,115.52 132.51,113.63 C 135.32,112.41 137.60999999999999,114.7 139.38,116.56 C 141.2,116.67 143.03,116.8 144.86,116.85 C 145.35000000000002,116.61 146.34,116.11999999999999 146.84,115.88 C 147.78,115.38 148.70999999999998,114.87 149.67,114.4 C 154.82999999999998,113.78 153.64000000000001,120.1 154.9,123.24 C 157.04,127.38 155.74,133.12 151.61,135.5 C 146.64000000000001,137.83 140.88000000000002,138.18 135.61,136.71 C 135.49,138.94 135.4,141.18 135.37,143.43 C 138.15,142.46 140.84,141.28 143.5,140.05 C 144.03,144.02 144.38,148.03 144.1,152.03 C 143.62,157.21 142.63,162.49 139.99,167.03 C 138.12,170.34 135.42,173.06 132.97,175.93 C 137.6,176.18 141.94,174.52 146.2,172.93 C 145.64999999999998,173.79000000000002 145.1,174.66 144.56,175.53 C 140.51,176.74 135.76,176.62 132.72,180 C 132.72,180 130.28,180 130.28,180 C 131.19,179.24 132.09,178.47 133,177.7 C 132.42,177.29 131.25,176.48 130.67,176.07 C 131.89999999999998,174.32999999999998 133.45999999999998,172.85999999999999 134.89,171.29 C 139.23999999999998,166.23999999999998 141.51000000000002,159.71 142.02,153.12 C 142.35000000000002,149.38 142.27,145.63 142.19,141.89 C 139.63,142.82 136.12,145.69 133.78,142.97 C 133.61,140.7 133.96,138.44 134.15,136.19 C 129.79,134.81 127.25,130.81 126.63,126.44 C 122.77,125.48 119.02,124.0 115.99,121.35 C 114.63,122.16 113.28,122.96 111.92,123.77 C 111.38,129.44 110.75,135.44 107.47,140.29 C 107.26,141.72 107.16999999999999,144.19 105.07,143.89 C 98.16999999999999,141.2 90.57,145.19 83.71,142.16 C 79.14999999999999,140.2 76.64999999999999,135.65 74.83,131.3 C 74.75,134.42000000000002 75.0,137.59 74.49,140.69 C 74.33999999999999,141.76 73.58,142.93 72.35,142.68 C 68.50999999999999,138.76000000000002 67.61,133.07999999999998 66.48,127.94 C 65.5,124.31 65.92,120.52 65.56,116.81 C 64.99000000000001,118.87 64.3,120.94999999999999 64.41,123.13 C 64.41,123.13 64.59,123.82 64.59,123.82 C 65.03,124.97 63.669999999999995,125.28 62.98,125.78 C 61.599999999999994,131.93 61.17,138.58999999999997 58.11,144.17 C 56.13,145.98999999999998 54.78,143.06 54.08,141.62 C 52.199999999999996,145.63 48.22,147.58999999999997 44.47,149.45 C 43.74,153.01 44.35,156.7 45.02,160.23 C 46.38,164.92 48.47,169.54 51.94,173.06 C 53.129999999999995,174.55 55.08,175.76 55.1,177.87 C 55.1,177.87 55.21,178.81 55.21,178.81 C 55.21,178.81 56.08,180 56.08,180 C 56.08,180 52.47,180 52.47,180 C 47.08,179.46 39.28,180.28 36.99,174.01 C 41.97,176.76 47.54,178.54 53.29,177.57 C 50.89,174.70999999999998 48.02,172.19 46.24,168.87 C 43.03,163.33 42.24,156.83 41.88,150.55 C 42.89,147.63000000000002 46.09,146.98000000000002 48.49,145.61 C 51.22,144.32000000000002 52.27,141.3 54.07,139.08 C 55.84,139.28 55.58,141.95 56.42,143.16 C 58.34,142.60999999999999 58.48,140.45000000000002 58.94,138.84 C 59.879999999999995,134.22 60.68,129.57 61.58,124.95 C 60.949999999999996,124.84 59.68,124.63 59.04,124.52 C 58.64,123.74 58.25,122.96 57.89,122.16 C 59.29,122.6 60.690000000000005,123.06 62.1,123.5 C 62.83,120.93 63.55,118.36 64.36,115.82 &#10;M 130.86,118.09 C 130.13000000000002,121.35000000000001 129.26999999999998,124.64 129.17,128 C 129.33999999999997,132.1 133.16,134.85 136.92,135.5 C 141.57999999999998,137.07 146.71,136.23 151.06,134.14 C 153.88,132.07999999999998 154.82999999999998,127.78999999999999 153.32,124.66 C 152.2,121.92999999999999 152.32,118.92999999999999 151.93,116.05 C 149.49,115.8 147.57999999999998,117.39999999999999 145.51,118.38 C 143.32999999999998,118.57 141.13,118.21000000000001 138.98,117.9 C 137.17999999999998,117.02000000000001 136.2,114.64 133.97,114.68 C 132.44,115.22000000000001 131.06,116.4 130.86,118.09 &#10;M 112.34,116.01 C 112.3,117.91000000000001 112.24,119.80999999999999 112.17,121.71 C 113.11,121.32 114.04,120.92999999999999 114.98,120.55 C 114.09,119.03999999999999 113.19,117.54 112.34,116.01 C 112.34,116.01 112.34,116.01 112.34,116.01 Z" style="fill-opacity:1.0;fill:rgb(9, 8, 8)"/>
        </g>
      </g>
      <g inkscape:groupmode="layer" id="g_115" inkscape:label="#4d4a50ff" transform="matrix(1.0, 0.0, 0.0, 1.0, 0.0, 0.0)" style="">
        <g id="g_116" transform="matrix(1.0, 0.0, 0.0, 1.0, 0.0, 0.0)" style="fill-opacity:1.0;fill:rgb(77, 74, 80)">
          <path d="M 130.86,118.09 C 131.06,116.4 132.44,115.22000000000001 133.97,114.68 C 136.2,114.64 137.17999999999998,117.02000000000001 138.98,117.9 C 141.13,118.21000000000001 143.32999999999998,118.57 145.51,118.38 C 147.57999999999998,117.39999999999999 149.49,115.8 151.93,116.05 C 152.32,118.92999999999999 152.2,121.92999999999999 153.32,124.66 C 154.82999999999998,127.78999999999999 153.88,132.07999999999998 151.06,134.14 C 146.71,136.23 141.57999999999998,137.07 136.92,135.5 C 133.16,134.85 129.33999999999997,132.1 129.17,128 C 129.26999999999998,124.64 130.13000000000002,121.35000000000001 130.86,118.09 &#10;M 133.37,123.23 C 131.52,124.77000000000001 130.95999999999998,128.29000000000002 133.23,129.71 C 136.16,131.73000000000002 139.92000000000002,128.04999999999998 139.24,125.02 C 138.61,122.63 135.18,121.36 133.37,123.23 &#10;M 145.14,123.27 C 143.04999999999998,124.05 142.33,127.04 142.93,129.03 C 143.89000000000001,132.07 148.57,132.74 150.1,129.81 C 152.45,126.62 149.04,121.55 145.14,123.27 C 145.14,123.27 145.14,123.27 145.14,123.27 Z" style="fill-opacity:1.0;fill:rgb(77, 74, 80)"/>
        </g>
        <g id="g_117" transform="matrix(1.0, 0.0, 0.0, 1.0, 0.0, 0.0)" style="fill-opacity:1.0;fill:rgb(77, 74, 80)">
          <path d="M 164.73,124.92 C 164.42999999999998,123.21000000000001 164.32,121.45 164.84,119.76 C 165.83,127.81 167.67000000000002,135.79 167.55,143.95 C 167.69,150.89999999999998 166.47,157.75 165.54,164.61 C 163.92999999999998,169.81 162.66,175.18 160.03,180 C 160.03,180 158.27,180 158.27,180 C 163.04000000000002,171.32 165.02,161.35000000000002 165.8,151.55 C 167.03,142.69 166.07999999999998,133.71 164.73,124.92 C 164.73,124.92 164.73,124.92 164.73,124.92 Z" style="fill-opacity:1.0;fill:rgb(77, 74, 80)"/>
        </g>
        <g id="g_118" transform="matrix(1.0, 0.0, 0.0, 1.0, 0.0, 0.0)" style="fill-opacity:1.0;fill:rgb(77, 74, 80)">
          <path d="M 20.8,163.42 C 20.27,151.10999999999999 20.939999999999998,138.48 24.7,126.66 C 23.87,135.05 21.95,143.32 21.65,151.79 C 21.5,161.32999999999998 22.43,171.08 26.02,180 C 26.02,180 24.02,180 24.02,180 C 22.919999999999998,174.48 21.5,169.01999999999998 20.8,163.42 C 20.8,163.42 20.8,163.42 20.8,163.42 Z" style="fill-opacity:1.0;fill:rgb(77, 74, 80)"/>
        </g>
      </g>
      <g inkscape:groupmode="layer" id="g_119" inkscape:label="#fff1ecff" transform="matrix(1.0, 0.0, 0.0, 1.0, 0.0, 0.0)" style="">
        <g id="g_120" transform="matrix(1.0, 0.0, 0.0, 1.0, 0.0, 0.0)" style="fill-opacity:1.0;fill:rgb(255, 241, 236)">
          <path d="M 112.34,116.01 C 113.19,117.54 114.09,119.03999999999999 114.98,120.55 C 114.04,120.92999999999999 113.11,121.32 112.17,121.71 C 112.24,119.80999999999999 112.3,117.91000000000001 112.34,116.01 C 112.34,116.01 112.34,116.01 112.34,116.01 Z" style="fill-opacity:1.0;fill:rgb(255, 241, 236)"/>
        </g>
        <g id="g_121" transform="matrix(1.0, 0.0, 0.0, 1.0, 0.0, 0.0)" style="fill-opacity:1.0;fill:rgb(255, 241, 236)">
          <path d="M 65.56,116.81 C 65.92,120.52 65.5,124.31 66.48,127.94 C 67.61,133.07999999999998 68.50999999999999,138.76000000000002 72.35,142.68 C 73.58,142.93 74.33999999999999,141.76 74.49,140.69 C 75.0,137.59 74.75,134.42000000000002 74.83,131.3 C 76.64999999999999,135.65 79.14999999999999,140.2 83.71,142.16 C 90.57,145.19 98.16999999999999,141.2 105.07,143.89 C 107.16999999999999,144.19 107.26,141.72 107.47,140.29 C 110.75,135.44 111.38,129.44 111.92,123.77 C 113.28,122.96 114.63,122.16 115.99,121.35 C 119.02,124.0 122.77,125.48 126.63,126.44 C 127.25,130.81 129.79,134.81 134.15,136.19 C 133.96,138.44 133.61,140.7 133.78,142.97 C 136.12,145.69 139.63,142.82 142.19,141.89 C 142.27,145.63 142.35000000000002,149.38 142.02,153.12 C 140.28,153.1 138.55,153.08 136.81,153.06 C 136.99,150.81 136.51999999999998,148.10999999999999 133.98,147.45 C 125.71,145.48 117.0,145.54999999999998 108.61,146.85 C 108.1,149.06 108.39999999999999,152.17000000000002 110.82,153.11 C 114.44999999999999,153.91000000000003 118.22,153.56 121.91,153.91 C 123.19,154.25 124.46,154.64000000000001 125.74,155.02 C 123.08,157.46 120.3,161.12 121.99,164.88 C 124.08999999999999,169.89 130.14999999999998,170.70999999999998 134.89,171.29 C 133.45999999999998,172.85999999999999 131.89999999999998,174.32999999999998 130.67,176.07 C 131.25,176.48 132.42,177.29 133,177.7 C 132.09,178.47 131.19,179.24 130.28,180 C 130.28,180 56.08,180 56.08,180 C 56.08,180 55.21,178.81 55.21,178.81 C 55.21,178.81 55.1,177.87 55.1,177.87 C 56.57,173.93 61.96,174.46 64.03,171 C 66.69,167.83 66.03,162.68 62.69,160.27 C 60.22,158.62 57.269999999999996,157.93 54.44,157.16 C 60.949999999999996,156.09 67.51,155.1 73.97,153.81 C 75.35,151.94 73.77,149.61 73.28,147.68 C 65.84,147.91 58.3,148.38 51.08,150.34 C 48.65,151.05 45.099999999999994,152.79 46.23,155.92 C 46.73,158.83999999999997 50.46,157.54999999999998 52.46,157.51 C 50.08,158.67999999999998 47.6,159.64 45.02,160.23 C 44.35,156.7 43.74,153.01 44.47,149.45 C 48.22,147.58999999999997 52.199999999999996,145.63 54.08,141.62 C 54.78,143.06 56.13,145.98999999999998 58.11,144.17 C 61.17,138.58999999999997 61.599999999999994,131.93 62.98,125.78 C 63.669999999999995,125.28 65.03,124.97 64.59,123.82 C 64.59,123.82 64.41,123.13 64.41,123.13 C 64.3,120.94999999999999 64.99000000000001,118.87 65.56,116.81 &#10;M 100.27,164.4 C 97.05,166.54 96.05,170.89000000000001 92.94,173.09 C 90.09,170.87 88.35,167.58 85.64,165.21 C 85.64,165.21 84.16,165.15 84.16,165.15 C 84.16,165.15 83.89,165.99 83.89,165.99 C 85.47,169.21 88.22,171.76 90.57,174.45 C 91.5,175.78 93.62,176.25 94.67,174.79 C 97.16,171.66 99.85,168.49 101.52,164.86 C 101.52,164.86 100.27,164.4 100.27,164.4 C 100.27,164.4 100.27,164.4 100.27,164.4 Z" style="fill-opacity:1.0;fill:rgb(255, 241, 236)"/>
        </g>
      </g>
      <g inkscape:groupmode="layer" id="g_122" inkscape:label="#c3c5cdff" transform="matrix(1.0, 0.0, 0.0, 1.0, 0.0, 0.0)" style="">
        <g id="g_123" transform="matrix(1.0, 0.0, 0.0, 1.0, 0.0, 0.0)" style="fill-opacity:1.0;fill:rgb(195, 197, 205)">
          <path d="M 165.18,118.35 C 169.94,132.38 170.79,147.34 171.32,162.02 C 171.85999999999999,168.09 172.59,174.22 174.62,180 C 174.62,180 166.06,180 166.06,180 C 166.36,174.87 166.53,169.69000000000003 165.54,164.61 C 166.47,157.75 167.69,150.89999999999998 167.55,143.95 C 167.67000000000002,135.79 165.83,127.81 164.84,119.76 C 164.84,119.76 165.18,118.35 165.18,118.35 C 165.18,118.35 165.18,118.35 165.18,118.35 Z" style="fill-opacity:1.0;fill:rgb(195, 197, 205)"/>
        </g>
        <g id="g_124" transform="matrix(1.0, 0.0, 0.0, 1.0, 0.0, 0.0)" style="fill-opacity:1.0;fill:rgb(195, 197, 205)">
          <path d="M 144.1,152.03 C 144.67,151.39000000000001 145.23000000000002,150.75 145.8,150.11 C 145.97,152.01000000000002 146.13000000000002,153.92000000000002 146.3,155.83 C 151.74,156.09 157.19,156.17999999999998 162.62,155.79 C 163.69,154.38 164.76000000000002,152.98000000000002 165.8,151.55 C 165.02,161.35000000000002 163.04000000000002,171.32 158.27,180 C 158.27,180 141.55,180 141.55,180 C 142.65,178.57 143.61,177.06 144.56,175.53 C 145.1,174.66 145.64999999999998,173.79000000000002 146.2,172.93 C 141.94,174.52 137.6,176.18 132.97,175.93 C 135.42,173.06 138.12,170.34 139.99,167.03 C 142.63,162.49 143.62,157.21 144.1,152.03 C 144.1,152.03 144.1,152.03 144.1,152.03 Z" style="fill-opacity:1.0;fill:rgb(195, 197, 205)"/>
        </g>
      </g>
      <g inkscape:groupmode="layer" id="g_125" inkscape:label="#cdcbccff" transform="matrix(1.0, 0.0, 0.0, 1.0, 0.0, 0.0)" style="">
        <g id="g_126" transform="matrix(1.0, 0.0, 0.0, 1.0, 0.0, 0.0)" style="fill-opacity:1.0;fill:rgb(205, 203, 204)">
          <path d="M 77.28,126.12 C 85.98,125.75 94.64999999999999,124.78999999999999 103.21,123.19 C 105.46,123.87 107.78,124.29 110.13,124.43 C 109.64999999999999,128.87 108.52,133.19 106.82,137.31 C 107.00999999999999,133.83 106.39999999999999,130.26 104.33,127.38 C 103.41,132.39 104.03999999999999,137.48 105.22,142.38 C 98.64,139.32999999999998 90.94,143.65 84.25,140.65 C 80.08,138.69 77.76,134.44 76.36,130.26 C 76.66,128.88 76.97,127.5 77.28,126.12 C 77.28,126.12 77.28,126.12 77.28,126.12 Z" style="fill-opacity:1.0;fill:rgb(205, 203, 204)"/>
        </g>
      </g>
      <g inkscape:groupmode="layer" id="g_127" inkscape:label="#74767eff" transform="matrix(1.0, 0.0, 0.0, 1.0, 0.0, 0.0)" style="">
        <g id="g_128" transform="matrix(1.0, 0.0, 0.0, 1.0, 0.0, 0.0)" style="fill-opacity:1.0;fill:rgb(116, 118, 126)">
          <path d="M 104.33,127.38 C 106.39999999999999,130.26 107.00999999999999,133.83 106.82,137.31 C 106.27,139.0 105.73,140.69 105.22,142.38 C 104.03999999999999,137.48 103.41,132.39 104.33,127.38 C 104.33,127.38 104.33,127.38 104.33,127.38 Z" style="fill-opacity:1.0;fill:rgb(116, 118, 126)"/>
        </g>
      </g>
      <g inkscape:groupmode="layer" id="g_129" inkscape:label="#111213ff" transform="matrix(1.0, 0.0, 0.0, 1.0, 0.0, 0.0)" style="">
        <g id="g_130" transform="matrix(1.0, 0.0, 0.0, 1.0, 0.0, 0.0)" style="fill-opacity:1.0;fill:rgb(17, 18, 19)">
          <path d="M 108.61,146.85 C 117.0,145.54999999999998 125.71,145.48 133.98,147.45 C 136.51999999999998,148.10999999999999 136.99,150.81 136.81,153.06 C 136.4,153.4 135.57999999999998,154.07999999999998 135.17,154.42 C 130.75,154.25 126.32,154.15 121.91,153.91 C 118.22,153.56 114.44999999999999,153.91000000000003 110.82,153.11 C 108.39999999999999,152.17000000000002 108.1,149.06 108.61,146.85 C 108.61,146.85 108.61,146.85 108.61,146.85 Z" style="fill-opacity:1.0;fill:rgb(17, 18, 19)"/>
        </g>
        <g id="g_131" transform="matrix(1.0, 0.0, 0.0, 1.0, 0.0, 0.0)" style="fill-opacity:1.0;fill:rgb(17, 18, 19)">
          <path d="M 51.08,150.34 C 58.3,148.38 65.84,147.91 73.28,147.68 C 73.77,149.61 75.35,151.94 73.97,153.81 C 67.51,155.1 60.949999999999996,156.09 54.44,157.16 C 53.94,157.25 52.46,157.51 52.46,157.51 C 50.46,157.54999999999998 46.73,158.83999999999997 46.23,155.92 C 45.099999999999994,152.79 48.65,151.05 51.08,150.34 C 51.08,150.34 51.08,150.34 51.08,150.34 Z" style="fill-opacity:1.0;fill:rgb(17, 18, 19)"/>
        </g>
      </g>
      <g inkscape:groupmode="layer" id="g_132" inkscape:label="#c4c6cdff" transform="matrix(1.0, 0.0, 0.0, 1.0, 0.0, 0.0)" style="">
        <g id="g_133" transform="matrix(1.0, 0.0, 0.0, 1.0, 0.0, 0.0)" style="fill-opacity:1.0;fill:rgb(196, 198, 205)">
          <path d="M 21.65,151.79 C 22.15,151.70999999999998 23.16,151.54000000000002 23.66,151.46 C 24.41,153.17000000000002 23.61,156.55 26.08,156.77 C 30.839999999999996,156.84 35.56,157.5 40.31,157.66 C 40.11,155.17 40.46,152.67000000000002 41.88,150.55 C 42.24,156.83 43.03,163.33 46.24,168.87 C 48.02,172.19 50.89,174.70999999999998 53.29,177.57 C 47.54,178.54 41.97,176.76 36.99,174.01 C 39.28,180.28 47.08,179.46 52.47,180 C 52.47,180 26.02,180 26.02,180 C 22.43,171.08 21.5,161.32999999999998 21.65,151.79 C 21.65,151.79 21.65,151.79 21.65,151.79 Z" style="fill-opacity:1.0;fill:rgb(196, 198, 205)"/>
        </g>
      </g>
      <g inkscape:groupmode="layer" id="g_134" inkscape:label="#ffd6ceff" transform="matrix(1.0, 0.0, 0.0, 1.0, 0.0, 0.0)" style="">
        <g id="g_135" transform="matrix(1.0, 0.0, 0.0, 1.0, 0.0, 0.0)" style="fill-opacity:1.0;fill:rgb(255, 214, 206)">
          <path d="M 136.81,153.06 C 138.55,153.08 140.28,153.1 142.02,153.12 C 141.51000000000002,159.71 139.23999999999998,166.23999999999998 134.89,171.29 C 130.14999999999998,170.70999999999998 124.08999999999999,169.89 121.99,164.88 C 120.3,161.12 123.08,157.46 125.74,155.02 C 124.46,154.64000000000001 123.19,154.25 121.91,153.91 C 126.32,154.15 130.75,154.25 135.17,154.42 C 135.57999999999998,154.07999999999998 136.4,153.4 136.81,153.06 C 136.81,153.06 136.81,153.06 136.81,153.06 Z" style="fill-opacity:1.0;fill:rgb(255, 214, 206)"/>
        </g>
        <g id="g_136" transform="matrix(1.0, 0.0, 0.0, 1.0, 0.0, 0.0)" style="fill-opacity:1.0;fill:rgb(255, 214, 206)">
          <path d="M 52.46,157.51 C 52.46,157.51 53.94,157.25 54.44,157.16 C 57.269999999999996,157.93 60.22,158.62 62.69,160.27 C 66.03,162.68 66.69,167.83 64.03,171 C 61.96,174.46 56.57,173.93 55.1,177.87 C 55.08,175.76 53.129999999999995,174.55 51.94,173.06 C 48.47,169.54 46.38,164.92 45.02,160.23 C 47.6,159.64 50.08,158.67999999999998 52.46,157.51 C 52.46,157.51 52.46,157.51 52.46,157.51 Z" style="fill-opacity:1.0;fill:rgb(255, 214, 206)"/>
        </g>
      </g>
      <g inkscape:groupmode="layer" id="g_137" inkscape:label="#8b8e98ff" transform="matrix(1.0, 0.0, 0.0, 1.0, 0.0, 0.0)" style="">
        <g id="g_138" transform="matrix(1.0, 0.0, 0.0, 1.0, 0.0, 0.0)" style="fill-opacity:1.0;fill:rgb(139, 142, 152)">
          <path d="M 19.88,180 C 19.7,174.46 19.51,168.85999999999999 20.8,163.42 C 21.5,169.01999999999998 22.919999999999998,174.48 24.02,180 C 24.02,180 19.88,180 19.88,180 C 19.88,180 19.88,180 19.88,180 Z" style="fill-opacity:1.0;fill:rgb(139, 142, 152)"/>
        </g>
        <g id="g_139" transform="matrix(1.0, 0.0, 0.0, 1.0, 0.0, 0.0)" style="fill-opacity:1.0;fill:rgb(139, 142, 152)">
          <path d="M 160.03,180 C 162.66,175.18 163.92999999999998,169.81 165.54,164.61 C 166.53,169.69000000000003 166.36,174.87 166.06,180 C 166.06,180 160.03,180 160.03,180 C 160.03,180 160.03,180 160.03,180 Z" style="fill-opacity:1.0;fill:rgb(139, 142, 152)"/>
        </g>
        <g id="g_140" transform="matrix(1.0, 0.0, 0.0, 1.0, 0.0, 0.0)" style="fill-opacity:1.0;fill:rgb(139, 142, 152)">
          <path d="M 132.72,180 C 135.76,176.62 140.51,176.74 144.56,175.53 C 143.61,177.06 142.65,178.57 141.55,180 C 141.55,180 132.72,180 132.72,180 C 132.72,180 132.72,180 132.72,180 Z" style="fill-opacity:1.0;fill:rgb(139, 142, 152)"/>
        </g>
      </g>
      <g inkscape:groupmode="layer" id="g_141" inkscape:label="#ac5b69ff" transform="matrix(1.0, 0.0, 0.0, 1.0, 0.0, 0.0)" style="">
        <g id="g_142" transform="matrix(1.0, 0.0, 0.0, 1.0, 0.0, 0.0)" style="fill-opacity:1.0;fill:rgb(172, 91, 105)">
          <path d="M 100.27,164.4 C 100.27,164.4 101.52,164.86 101.52,164.86 C 99.85,168.49 97.16,171.66 94.67,174.79 C 93.62,176.25 91.5,175.78 90.57,174.45 C 88.22,171.76 85.47,169.21 83.89,165.99 C 83.89,165.99 84.16,165.15 84.16,165.15 C 84.16,165.15 85.64,165.21 85.64,165.21 C 88.35,167.58 90.09,170.87 92.94,173.09 C 96.05,170.89000000000001 97.05,166.54 100.27,164.4 C 100.27,164.4 100.27,164.4 100.27,164.4 Z" style="fill-opacity:1.0;fill:rgb(172, 91, 105)"/>
        </g>
      </g>
    </g>
  </g>
</svg>
